<svg width="292" height="322" viewBox="0 0 292 322" fill="none" xmlns="http://www.w3.org/2000/svg">
<path d="M136.798 264.29C167.234 313.054 214.857 297.618 234.865 283.804C275.126 249.787 277.728 209.932 246.774 179.696C215.82 149.46 187.1 154.29 164.369 164.548C146.1 172.793 98.7535 203.336 136.798 264.29Z" fill="#FFDFDC"/>
<path d="M42.7982 250.29C73.234 299.054 120.857 283.618 140.865 269.804C181.126 235.787 183.728 195.932 152.774 165.696C121.82 135.46 93.1001 140.29 70.3687 150.548C52.1001 158.793 4.75348 189.336 42.7982 250.29Z" fill="#B6DDDA"/>
<path d="M150.679 121.063C176.17 63.6334 140.531 33.7272 119.525 25.9527C72.1332 14.3724 38.0697 38.2336 28.0814 83.9893C18.0931 129.745 35.8976 150.708 55.2886 163.094C70.8726 173.048 118.815 192.849 150.679 121.063Z" fill="#FFE6A3"/>
<path d="M139.763 166.316C169.426 213.983 213.677 200.244 232.095 187.417C269.011 155.615 270.508 117.305 240.796 87.4632C211.084 57.6219 184.292 61.5941 163.239 70.935C146.319 78.442 102.683 106.731 139.763 166.316Z" fill="#FFB0A9"/>
<path d="M76.8653 178.6V175.64L107.665 136.52H111.425V175.4H120.705V178.6H111.425V193H107.825V178.6H76.8653ZM107.985 141.32L80.8653 175.4H107.985V141.32ZM127.333 164.6C127.333 173.827 128.666 180.947 131.333 185.96C134.053 190.973 138.959 193.48 146.053 193.48C153.093 193.48 157.946 190.973 160.613 185.96C163.333 180.947 164.693 173.827 164.693 164.6C164.693 155.48 163.359 148.44 160.693 143.48C158.026 138.52 153.146 136.04 146.053 136.04C138.959 136.04 134.053 138.52 131.333 143.48C128.666 148.44 127.333 155.48 127.333 164.6ZM161.093 164.6C161.093 169.987 160.693 174.52 159.893 178.2C159.146 181.827 157.653 184.733 155.413 186.92C153.226 189.053 150.106 190.12 146.053 190.12C141.946 190.12 138.773 189.053 136.533 186.92C134.346 184.733 132.853 181.827 132.053 178.2C131.306 174.52 130.933 169.987 130.933 164.6C130.933 159.267 131.306 154.787 132.053 151.16C132.853 147.533 134.346 144.68 136.533 142.6C138.773 140.467 141.946 139.4 146.053 139.4C150.106 139.4 153.226 140.467 155.413 142.6C157.653 144.68 159.146 147.533 159.893 151.16C160.693 154.787 161.093 159.267 161.093 164.6ZM171.787 178.6V175.64L202.587 136.52H206.347V175.4H215.627V178.6H206.347V193H202.747V178.6H171.787ZM202.907 141.32L175.787 175.4H202.907V141.32Z" fill="#383838"/>
</svg>
