<svg width="131" height="131" viewBox="0 0 131 131" fill="none" xmlns="http://www.w3.org/2000/svg">
<mask id="mask0" x="0" y="0" width="131" height="131">
<circle cx="65.5" cy="65.5" r="65.5" fill="#C4C4C4"/>
</mask>
<g mask="url(#mask0)">
<path d="M57.2875 117.733C81.2729 156.162 118.803 143.997 134.57 133.111C166.299 106.303 168.349 74.895 143.956 51.067C119.562 27.239 96.9287 31.0448 79.0148 39.1294C64.618 45.6268 27.3058 69.6963 57.2875 117.733Z" fill="#FFE9E7"/>
<path d="M-11.316 149.435C12.6694 187.864 50.1997 175.699 65.9667 164.813C97.6954 138.005 99.7457 106.597 75.3521 82.7691C50.9585 58.9411 28.3252 62.7469 10.4113 70.8316C-3.9855 77.329 -41.2977 101.398 -11.316 149.435Z" fill="#B6DDDA"/>
<path d="M51.67 31.8987C78.0052 74.2178 117.291 62.0207 133.642 50.6322C166.416 22.3983 167.745 -11.6132 141.367 -38.1063C114.989 -64.5994 91.2032 -61.0729 72.5119 -52.7801C57.4903 -46.1154 18.7509 -21.0002 51.67 31.8987Z" fill="#FFB0A9"/>
<path d="M16.281 -5.95111C-28.9611 -5.02315 -37.5786 27.6874 -36.2321 43.9267C-29.3073 78.7251 -3.33932 93.8045 29.5535 86.2648C62.4463 78.7252 70.6794 60.525 72.8335 43.9267C74.5647 30.5871 72.8335 -7.11106 16.281 -5.95111Z" fill="#FFE6A3"/>
<path d="M26.0713 122V124H30.0713V122H26.0713ZM100.928 124V126H104.928V124H100.928ZM30.0713 122V112.284H26.0713V122H30.0713ZM56.1427 86.2144H74.857V82.2144H56.1427V86.2144ZM100.928 112.284V124H104.928V112.284H100.928ZM74.857 86.2144C89.256 86.2144 100.928 97.8857 100.928 112.284H104.928C104.928 95.6764 91.4649 82.2144 74.857 82.2144V86.2144ZM30.0713 112.284C30.0713 97.8857 41.7437 86.2144 56.1427 86.2144V82.2144C39.5348 82.2144 26.0713 95.6764 26.0713 112.284H30.0713ZM65.4999 26.0715C54.0597 26.0715 44.7856 35.3456 44.7856 46.7858H48.7856C48.7856 37.5548 56.2688 30.0715 65.4999 30.0715V26.0715ZM86.2141 46.7858C86.2141 35.3456 76.94 26.0715 65.4999 26.0715V30.0715C74.7309 30.0715 82.2141 37.5548 82.2141 46.7858H86.2141ZM65.4999 67.5001C76.94 67.5001 86.2141 58.226 86.2141 46.7858H82.2141C82.2141 56.0169 74.7309 63.5001 65.4999 63.5001V67.5001ZM65.4999 63.5001C56.2688 63.5001 48.7856 56.0169 48.7856 46.7858H44.7856C44.7856 58.226 54.0597 67.5001 65.4999 67.5001V63.5001Z" fill="#383838"/>
</g>
</svg>
