<svg width="292" height="322" viewBox="0 0 292 322" fill="none" xmlns="http://www.w3.org/2000/svg">
<path d="M136.798 264.29C167.234 313.054 214.857 297.618 234.865 283.804C275.126 249.786 277.728 209.932 246.774 179.696C215.82 149.46 187.1 154.289 164.369 164.548C146.1 172.793 98.7535 203.335 136.798 264.29Z" fill="#FFDFDC"/>
<path d="M42.7982 250.29C73.234 299.054 120.857 283.618 140.865 269.804C181.126 235.786 183.728 195.932 152.774 165.696C121.82 135.46 93.1001 140.289 70.3687 150.548C52.1001 158.793 4.75348 189.335 42.7982 250.29Z" fill="#B6DDDA"/>
<path d="M150.679 121.063C176.17 63.6334 140.531 33.7272 119.525 25.9527C72.1332 14.3724 38.0697 38.2336 28.0814 83.9893C18.0931 129.745 35.8976 150.708 55.2886 163.094C70.8726 173.048 118.815 192.849 150.679 121.063Z" fill="#FFE6A3"/>
<path d="M139.763 166.316C169.426 213.983 213.677 200.245 232.095 187.417C269.011 155.615 270.508 117.305 240.796 87.4635C211.084 57.6222 184.292 61.5943 163.239 70.9352C146.319 78.4422 102.683 106.731 139.763 166.316Z" fill="#FFB0A9"/>
<path d="M178 222.862V177.08M178 177.08V122.143C175.759 121.761 170.38 121.914 166.793 125.576C162.311 130.154 162.311 137.022 162.311 141.6C162.311 145.262 162.311 166.78 162.311 177.08H178Z" stroke="#383838" stroke-width="1.5"/>
<path d="M128.69 122V162.345M128.69 222.862V162.345M144.379 122V147.776C144.379 149.644 143.483 154.276 139.896 157.862C136.31 161.448 130.931 162.345 128.69 162.345M128.69 162.345C126.448 162.345 121.069 161.448 117.483 157.862C113.897 154.276 113 149.644 113 147.776V122" stroke="#383838" stroke-width="1.5"/>
</svg>
