<svg width="45" height="45" viewBox="0 0 45 45" fill="none" xmlns="http://www.w3.org/2000/svg">
<mask id="mask0" mask-type="alpha" maskUnits="userSpaceOnUse" x="0" y="0" width="45" height="45">
<circle cx="22.5" cy="22.5" r="22.5" fill="#C4C4C4"/>
</mask>
<g mask="url(#mask0)">
<path d="M19.6788 40.4427C27.9181 53.6435 40.8102 49.4647 46.2263 45.7252C57.1255 36.5163 57.8298 25.7274 49.4503 17.5423C41.0708 9.35706 33.296 10.6644 27.1424 13.4416C22.1969 15.6735 9.37977 23.9416 19.6788 40.4427Z" fill="#FFDFDC"/>
<path d="M-3.8871 51.3323C4.35215 64.5331 17.2442 60.3544 22.6604 56.6149C33.5596 47.406 34.2639 36.6171 25.8844 28.4319C17.5049 20.2467 9.7301 21.5541 3.57648 24.3312C-1.36899 26.5631 -14.1861 34.8313 -3.8871 51.3323Z" fill="#B6DDDA"/>
<path d="M17.7495 10.9576C26.7959 25.4947 40.2911 21.3049 45.9079 17.3928C57.1661 7.69415 57.6227 -3.98921 48.5615 -13.0899C39.5003 -22.1906 31.3296 -20.9792 24.9089 -18.1305C19.7488 -15.8411 6.4414 -7.21376 17.7495 10.9576Z" fill="#FFB0A9"/>
<path d="M5.59251 -2.04423C-9.94866 -1.72546 -12.9089 9.51098 -12.4463 15.0894C-10.0676 27.043 -1.14728 32.223 10.1518 29.633C21.4508 27.043 24.279 20.7911 25.019 15.0894C25.6137 10.5071 25.019 -2.44268 5.59251 -2.04423Z" fill="#FFE6A3"/>
<path d="M8.64258 41.9083V42.9083H10.6426V41.9083H8.64258ZM34.3569 42.5953V43.5953H36.3569V42.5953H34.3569ZM10.6426 41.9083V38.5709H8.64258V41.9083H10.6426ZM19.2854 29.9285H25.714V27.9285H19.2854V29.9285ZM34.3569 38.5709V42.5953H36.3569V38.5709H34.3569ZM25.714 29.9285C30.4874 29.9285 34.3569 33.7977 34.3569 38.5709H36.3569C36.3569 32.693 31.5918 27.9285 25.714 27.9285V29.9285ZM10.6426 38.5709C10.6426 33.7977 14.5121 29.9285 19.2854 29.9285V27.9285C13.4076 27.9285 8.64258 32.693 8.64258 38.5709H10.6426ZM22.4997 8.64282C18.397 8.64282 15.0711 11.9687 15.0711 16.0714H17.0711C17.0711 13.0733 19.5016 10.6428 22.4997 10.6428V8.64282ZM29.9283 16.0714C29.9283 11.9687 26.6024 8.64282 22.4997 8.64282V10.6428C25.4978 10.6428 27.9283 13.0733 27.9283 16.0714H29.9283ZM22.4997 23.5C26.6024 23.5 29.9283 20.1741 29.9283 16.0714H27.9283C27.9283 19.0695 25.4978 21.5 22.4997 21.5V23.5ZM22.4997 21.5C19.5016 21.5 17.0711 19.0695 17.0711 16.0714H15.0711C15.0711 20.1741 18.397 23.5 22.4997 23.5V21.5Z" fill="#383838"/>
</g>
</svg>
