<svg width="21" height="21" viewBox="0 0 21 21" fill="none" xmlns="http://www.w3.org/2000/svg">
<path d="M1 13.2143L0.649322 12.8579L0.5 13.0048V13.2143H1ZM13.4138 1L13.7645 0.643594C13.5699 0.452135 13.2577 0.452135 13.0631 0.643594L13.4138 1ZM20.3103 7.78571L20.661 8.14212C20.7565 8.04813 20.8103 7.91973 20.8103 7.78571C20.8103 7.6517 20.7565 7.5233 20.661 7.42931L20.3103 7.78571ZM7.89655 20V20.5H8.10129L8.24723 20.3564L7.89655 20ZM1 20H0.5C0.5 20.2761 0.723858 20.5 1 20.5V20ZM1.35068 13.5707L13.7645 1.35641L13.0631 0.643594L0.649322 12.8579L1.35068 13.5707ZM13.0631 1.35641L19.9597 8.14212L20.661 7.42931L13.7645 0.643594L13.0631 1.35641ZM19.9597 7.42931L7.54587 19.6436L8.24723 20.3564L20.661 8.14212L19.9597 7.42931ZM7.89655 19.5H1V20.5H7.89655V19.5ZM1.5 20V13.2143H0.5V20H1.5ZM8.92518 5.42783L15.8217 12.2135L16.5231 11.5007L9.62654 4.71502L8.92518 5.42783ZM11.3448 20.5H21V19.5H11.3448V20.5Z" fill="#383838"/>
</svg>
