<svg width="295" height="312" viewBox="0 0 295 312" fill="none" xmlns="http://www.w3.org/2000/svg">
<path d="M34.425 125.023C62.8677 170.594 107.373 156.168 126.07 143.259C163.695 111.469 166.126 74.2247 137.199 45.9685C108.272 17.7124 81.433 22.2255 60.1901 31.8125C43.1178 39.5174 -1.12843 68.0599 34.425 125.023Z" fill="#FFDFDC"/>
<path d="M127.35 145.969C160.265 198.705 211.768 182.011 233.405 167.072C276.946 130.284 279.76 87.1828 246.285 54.4835C212.809 21.7843 181.749 27.007 157.166 38.1016C137.409 47.018 86.2057 80.0486 127.35 145.969Z" fill="#B6DDDA"/>
<path d="M45.0888 243.743C76.3182 293.927 122.905 279.463 142.295 265.958C181.159 232.477 182.735 192.145 151.455 160.729C120.175 129.312 91.9689 133.494 69.804 143.328C51.9908 151.231 6.05216 181.014 45.0888 243.743Z" fill="#FFB0A9"/>
<path d="M252.694 258.995C286.33 216.712 259.602 181.045 242.033 168.497C201.299 145.313 166.092 156.332 148.63 192.9C131.167 229.468 143.411 252.467 158.669 268.531C170.932 281.44 210.65 311.849 252.694 258.995Z" fill="#FFE6A3"/>
<path d="M128.191 148.571V129.286C128.191 118.635 136.783 110 147.382 110C157.981 110 166.574 118.635 166.574 129.286V148.571M115.397 148.571H179.368C182.901 148.571 185.765 151.45 185.765 155V193.571C185.765 197.122 182.901 200 179.368 200H115.397C111.864 200 109 197.122 109 193.571V155C109 151.45 111.864 148.571 115.397 148.571Z" stroke="#383838" stroke-width="3"/>
</svg>
