<svg width="47" height="47" viewBox="0 0 47 47" fill="none" xmlns="http://www.w3.org/2000/svg">
<path d="M23.5 1L23.9881 0.430558C23.7072 0.189814 23.2928 0.189814 23.0119 0.430558L23.5 1ZM1 20.2857L0.511906 19.7163L0.25 19.9408V20.2857H1ZM17.0714 46V46.75C17.4856 46.75 17.8214 46.4142 17.8214 46H17.0714ZM29.9286 46H29.1786C29.1786 46.4142 29.5144 46.75 29.9286 46.75V46ZM46 20.2857H46.75V19.9408L46.4881 19.7163L46 20.2857ZM4.21429 46.75H17.0714V45.25H4.21429V46.75ZM46.4881 19.7163L23.9881 0.430558L23.0119 1.56944L45.5119 20.8552L46.4881 19.7163ZM23.0119 0.430558L0.511906 19.7163L1.48809 20.8552L23.9881 1.56944L23.0119 0.430558ZM17.8214 46V36.3571H16.3214V46H17.8214ZM29.1786 36.3571V46H30.6786V36.3571H29.1786ZM29.9286 46.75H42.7857V45.25H29.9286V46.75ZM46.75 42.7857V20.2857H45.25V42.7857H46.75ZM0.25 20.2857V42.7857H1.75V20.2857H0.25ZM23.5 30.6786C26.6362 30.6786 29.1786 33.221 29.1786 36.3571H30.6786C30.6786 32.3925 27.4646 29.1786 23.5 29.1786V30.6786ZM23.5 29.1786C19.5354 29.1786 16.3214 32.3925 16.3214 36.3571H17.8214C17.8214 33.221 20.3638 30.6786 23.5 30.6786V29.1786ZM42.7857 46.75C44.9751 46.75 46.75 44.9751 46.75 42.7857H45.25C45.25 44.1467 44.1467 45.25 42.7857 45.25V46.75ZM4.21429 45.25C2.8533 45.25 1.75 44.1467 1.75 42.7857H0.25C0.25 44.9751 2.02487 46.75 4.21429 46.75V45.25Z" fill="#383838"/>
</svg>
