<svg width="47" height="47" viewBox="0 0 47 47" fill="none" xmlns="http://www.w3.org/2000/svg">
<path d="M23.5 1L23.8254 0.620372C23.6381 0.459876 23.3618 0.459876 23.1746 0.620372L23.5 1ZM1 20.2857L0.674604 19.9061L0.5 20.0557V20.2857H1ZM17.0714 46V46.5C17.3476 46.5 17.5714 46.2761 17.5714 46H17.0714ZM29.9286 46H29.4286C29.4286 46.2761 29.6524 46.5 29.9286 46.5V46ZM46 20.2857H46.5V20.0557L46.3254 19.9061L46 20.2857ZM4.21429 46.5H17.0714V45.5H4.21429V46.5ZM46.3254 19.9061L23.8254 0.620372L23.1746 1.37963L45.6746 20.6653L46.3254 19.9061ZM23.1746 0.620372L0.674604 19.9061L1.3254 20.6653L23.8254 1.37963L23.1746 0.620372ZM17.5714 46V36.3571H16.5714V46H17.5714ZM29.4286 36.3571V46H30.4286V36.3571H29.4286ZM29.9286 46.5H42.7857V45.5H29.9286V46.5ZM46.5 42.7857V20.2857H45.5V42.7857H46.5ZM0.5 20.2857V42.7857H1.5V20.2857H0.5ZM23.5 30.4286C26.7743 30.4286 29.4286 33.0829 29.4286 36.3571H30.4286C30.4286 32.5306 27.3265 29.4286 23.5 29.4286V30.4286ZM23.5 29.4286C19.6735 29.4286 16.5714 32.5306 16.5714 36.3571H17.5714C17.5714 33.0829 20.2257 30.4286 23.5 30.4286V29.4286ZM42.7857 46.5C44.8371 46.5 46.5 44.8371 46.5 42.7857H45.5C45.5 44.2848 44.2848 45.5 42.7857 45.5V46.5ZM4.21429 45.5C2.71523 45.5 1.5 44.2848 1.5 42.7857H0.5C0.5 44.8371 2.16294 46.5 4.21429 46.5V45.5Z" fill="#383838"/>
</svg>
