<svg width="43" height="43" viewBox="0 0 43 43" fill="none" xmlns="http://www.w3.org/2000/svg">
<path d="M21.5 21.7241H20.75C20.75 21.9244 20.8302 22.1165 20.9726 22.2573L21.5 21.7241ZM21.5 41.25C10.5846 41.25 1.75 32.5002 1.75 21.7241H0.25C0.25 33.3441 9.77174 42.75 21.5 42.75V41.25ZM41.25 21.7241C41.25 32.5002 32.4154 41.25 21.5 41.25V42.75C33.2283 42.75 42.75 33.3441 42.75 21.7241H41.25ZM21.5 2.19824C32.4154 2.19824 41.25 10.948 41.25 21.7241H42.75C42.75 10.1041 33.2283 0.698242 21.5 0.698242V2.19824ZM21.5 0.698242C9.77175 0.698242 0.25 10.1041 0.25 21.7241H1.75C1.75 10.948 10.5846 2.19824 21.5 2.19824V0.698242ZM20.75 1.44824V21.7241H22.25V1.44824H20.75ZM21.8325 22.3964L39.4039 13.7067L38.739 12.3622L21.1675 21.0518L21.8325 22.3964ZM20.9726 22.2573L35.6154 36.7401L36.6703 35.6736L22.0274 21.1909L20.9726 22.2573Z" fill="#383838"/>
</svg>
