<svg width="43" height="43" viewBox="0 0 43 43" fill="none" xmlns="http://www.w3.org/2000/svg">
<path d="M21.5 21.7241H21C21 21.8577 21.0534 21.9857 21.1484 22.0796L21.5 21.7241ZM21.5 41.5C10.4491 41.5 1.5 32.6408 1.5 21.7241H0.5C0.5 33.2035 9.90722 42.5 21.5 42.5V41.5ZM41.5 21.7241C41.5 32.6408 32.5509 41.5 21.5 41.5V42.5C33.0928 42.5 42.5 33.2035 42.5 21.7241H41.5ZM21.5 1.94824C32.5509 1.94824 41.5 10.8074 41.5 21.7241H42.5C42.5 10.2447 33.0928 0.948242 21.5 0.948242V1.94824ZM21.5 0.948242C9.90722 0.948242 0.5 10.2447 0.5 21.7241H1.5C1.5 10.8074 10.4491 1.94824 21.5 1.94824V0.948242ZM21 1.44824V21.7241H22V1.44824H21ZM21.7216 22.1723L39.2931 13.4826L38.8498 12.5863L21.2784 21.2759L21.7216 22.1723ZM21.1484 22.0796L35.7913 36.5624L36.4945 35.8514L21.8516 21.3686L21.1484 22.0796Z" fill="#383838"/>
</svg>
