<svg width="18" height="18" viewBox="0 0 18 18" fill="none" xmlns="http://www.w3.org/2000/svg">
<path d="M12.6001 17.3891L12.6001 17.8891H13.1001V17.3891H12.6001ZM0.600098 17.3892H0.100098V17.8892H0.600098L0.600098 17.3892ZM9.00009 11.3931L9.0001 11.8931L9.00009 11.3931ZM4.2001 11.3931L4.20009 10.8931L4.2001 11.3931ZM9.7001 4.19775C9.7001 5.9084 8.31266 7.2954 6.6001 7.2954V8.2954C8.86433 8.2954 10.7001 6.4613 10.7001 4.19775H9.7001ZM6.6001 7.2954C4.88753 7.2954 3.5001 5.9084 3.5001 4.19775H2.5001C2.5001 6.4613 4.33586 8.2954 6.6001 8.2954V7.2954ZM3.5001 4.19775C3.5001 2.4871 4.88753 1.1001 6.6001 1.1001V0.100098C4.33586 0.100098 2.5001 1.9342 2.5001 4.19775H3.5001ZM6.6001 1.1001C8.31266 1.1001 9.7001 2.4871 9.7001 4.19775H10.7001C10.7001 1.9342 8.86433 0.100098 6.6001 0.100098V1.1001ZM12.6001 16.8891L0.600097 16.8892L0.600098 17.8892L12.6001 17.8891L12.6001 16.8891ZM1.1001 17.3892C1.1001 17.3875 1.1001 17.3858 1.1001 17.3842C1.1001 17.3825 1.1001 17.3808 1.1001 17.3792C1.1001 17.3775 1.1001 17.3758 1.1001 17.3742C1.1001 17.3725 1.1001 17.3709 1.1001 17.3692C1.1001 17.3675 1.1001 17.3659 1.1001 17.3642C1.1001 17.3625 1.1001 17.3609 1.1001 17.3592C1.1001 17.3576 1.1001 17.3559 1.1001 17.3542C1.1001 17.3526 1.1001 17.3509 1.1001 17.3492C1.1001 17.3476 1.1001 17.3459 1.1001 17.3443C1.1001 17.3426 1.1001 17.3409 1.1001 17.3393C1.1001 17.3376 1.1001 17.336 1.1001 17.3343C1.1001 17.3326 1.1001 17.331 1.1001 17.3293C1.1001 17.3277 1.1001 17.326 1.1001 17.3243C1.1001 17.3227 1.1001 17.321 1.1001 17.3194C1.1001 17.3177 1.1001 17.316 1.1001 17.3144C1.1001 17.3127 1.1001 17.3111 1.1001 17.3094C1.1001 17.3077 1.1001 17.3061 1.1001 17.3044C1.1001 17.3028 1.1001 17.3011 1.1001 17.2994C1.1001 17.2978 1.1001 17.2961 1.1001 17.2945C1.1001 17.2928 1.1001 17.2912 1.1001 17.2895C1.1001 17.2878 1.1001 17.2862 1.1001 17.2845C1.1001 17.2829 1.1001 17.2812 1.1001 17.2796C1.1001 17.2779 1.1001 17.2762 1.1001 17.2746C1.1001 17.2729 1.1001 17.2713 1.1001 17.2696C1.1001 17.268 1.1001 17.2663 1.1001 17.2646C1.1001 17.263 1.1001 17.2613 1.1001 17.2597C1.1001 17.258 1.1001 17.2564 1.1001 17.2547C1.1001 17.2531 1.1001 17.2514 1.1001 17.2497C1.1001 17.2481 1.1001 17.2464 1.1001 17.2448C1.1001 17.2431 1.1001 17.2415 1.1001 17.2398C1.1001 17.2382 1.1001 17.2365 1.1001 17.2348C1.1001 17.2332 1.1001 17.2315 1.1001 17.2299C1.1001 17.2282 1.1001 17.2266 1.1001 17.2249C1.1001 17.2233 1.1001 17.2216 1.1001 17.22C1.1001 17.2183 1.1001 17.2167 1.1001 17.215C1.1001 17.2134 1.1001 17.2117 1.1001 17.2101C1.1001 17.2084 1.1001 17.2067 1.1001 17.2051C1.1001 17.2034 1.1001 17.2018 1.1001 17.2001C1.1001 17.1985 1.1001 17.1968 1.1001 17.1952C1.1001 17.1935 1.1001 17.1919 1.1001 17.1902C1.1001 17.1886 1.1001 17.1869 1.1001 17.1853C1.1001 17.1836 1.1001 17.182 1.1001 17.1803C1.1001 17.1787 1.1001 17.177 1.1001 17.1754C1.1001 17.1737 1.1001 17.1721 1.1001 17.1704C1.1001 17.1688 1.1001 17.1671 1.1001 17.1655C1.1001 17.1638 1.1001 17.1622 1.1001 17.1605C1.1001 17.1589 1.1001 17.1572 1.1001 17.1556C1.1001 17.1539 1.1001 17.1523 1.1001 17.1506C1.1001 17.149 1.1001 17.1473 1.1001 17.1457C1.1001 17.144 1.1001 17.1424 1.1001 17.1407C1.1001 17.1391 1.1001 17.1375 1.1001 17.1358C1.1001 17.1342 1.1001 17.1325 1.1001 17.1309C1.1001 17.1292 1.1001 17.1276 1.1001 17.1259C1.1001 17.1243 1.1001 17.1226 1.1001 17.121C1.1001 17.1193 1.1001 17.1177 1.1001 17.116C1.1001 17.1144 1.1001 17.1128 1.1001 17.1111C1.1001 17.1095 1.1001 17.1078 1.1001 17.1062C1.1001 17.1045 1.1001 17.1029 1.1001 17.1012C1.1001 17.0996 1.1001 17.0979 1.1001 17.0963C1.1001 17.0947 1.1001 17.093 1.1001 17.0914C1.1001 17.0897 1.1001 17.0881 1.1001 17.0864C1.1001 17.0848 1.1001 17.0831 1.1001 17.0815C1.1001 17.0799 1.1001 17.0782 1.1001 17.0766C1.1001 17.0749 1.1001 17.0733 1.1001 17.0716C1.1001 17.07 1.1001 17.0684 1.1001 17.0667C1.1001 17.0651 1.1001 17.0634 1.1001 17.0618C1.1001 17.0601 1.1001 17.0585 1.1001 17.0569C1.1001 17.0552 1.1001 17.0536 1.1001 17.0519C1.1001 17.0503 1.1001 17.0487 1.1001 17.047C1.1001 17.0454 1.1001 17.0437 1.1001 17.0421C1.1001 17.0405 1.1001 17.0388 1.1001 17.0372C1.1001 17.0355 1.1001 17.0339 1.1001 17.0323C1.1001 17.0306 1.1001 17.029 1.1001 17.0273C1.1001 17.0257 1.1001 17.0241 1.1001 17.0224C1.1001 17.0208 1.1001 17.0191 1.1001 17.0175C1.1001 17.0159 1.1001 17.0142 1.1001 17.0126C1.1001 17.0109 1.1001 17.0093 1.1001 17.0077C1.1001 17.006 1.1001 17.0044 1.1001 17.0027C1.1001 17.0011 1.1001 16.9995 1.1001 16.9978C1.1001 16.9962 1.1001 16.9946 1.1001 16.9929C1.1001 16.9913 1.1001 16.9897 1.1001 16.988C1.1001 16.9864 1.1001 16.9847 1.1001 16.9831C1.1001 16.9815 1.1001 16.9798 1.1001 16.9782C1.1001 16.9766 1.1001 16.9749 1.1001 16.9733C1.1001 16.9717 1.1001 16.97 1.1001 16.9684C1.1001 16.9667 1.1001 16.9651 1.1001 16.9635C1.1001 16.9618 1.1001 16.9602 1.1001 16.9586C1.1001 16.9569 1.1001 16.9553 1.1001 16.9537C1.1001 16.952 1.1001 16.9504 1.1001 16.9488C1.1001 16.9471 1.1001 16.9455 1.1001 16.9439C1.1001 16.9422 1.1001 16.9406 1.1001 16.939C1.1001 16.9373 1.1001 16.9357 1.1001 16.9341C1.1001 16.9324 1.1001 16.9308 1.1001 16.9292C1.1001 16.9275 1.1001 16.9259 1.1001 16.9243C1.1001 16.9226 1.1001 16.921 1.1001 16.9194C1.1001 16.9177 1.1001 16.9161 1.1001 16.9145C1.1001 16.9128 1.1001 16.9112 1.1001 16.9096C1.1001 16.908 1.1001 16.9063 1.1001 16.9047C1.1001 16.9031 1.1001 16.9014 1.1001 16.8998C1.1001 16.8982 1.1001 16.8965 1.1001 16.8949C1.1001 16.8933 1.1001 16.8916 1.1001 16.89C1.1001 16.8884 1.1001 16.8868 1.1001 16.8851C1.1001 16.8835 1.1001 16.8819 1.1001 16.8802C1.1001 16.8786 1.1001 16.877 1.1001 16.8754C1.1001 16.8737 1.1001 16.8721 1.1001 16.8705C1.1001 16.8688 1.1001 16.8672 1.1001 16.8656C1.1001 16.864 1.1001 16.8623 1.1001 16.8607C1.1001 16.8591 1.1001 16.8575 1.1001 16.8558C1.1001 16.8542 1.1001 16.8526 1.1001 16.8509C1.1001 16.8493 1.1001 16.8477 1.1001 16.8461C1.1001 16.8444 1.1001 16.8428 1.1001 16.8412C1.1001 16.8396 1.1001 16.8379 1.1001 16.8363C1.1001 16.8347 1.1001 16.8331 1.1001 16.8314C1.1001 16.8298 1.1001 16.8282 1.1001 16.8266C1.1001 16.8249 1.1001 16.8233 1.1001 16.8217C1.1001 16.8201 1.1001 16.8184 1.1001 16.8168C1.1001 16.8152 1.1001 16.8136 1.1001 16.8119C1.1001 16.8103 1.1001 16.8087 1.1001 16.8071C1.1001 16.8055 1.1001 16.8038 1.1001 16.8022C1.1001 16.8006 1.1001 16.799 1.1001 16.7973C1.1001 16.7957 1.1001 16.7941 1.1001 16.7925C1.1001 16.7908 1.1001 16.7892 1.1001 16.7876C1.1001 16.786 1.1001 16.7844 1.1001 16.7827C1.1001 16.7811 1.1001 16.7795 1.1001 16.7779C1.1001 16.7763 1.1001 16.7746 1.1001 16.773C1.1001 16.7714 1.1001 16.7698 1.1001 16.7682C1.1001 16.7665 1.1001 16.7649 1.1001 16.7633C1.1001 16.7617 1.1001 16.7601 1.1001 16.7584C1.1001 16.7568 1.1001 16.7552 1.1001 16.7536C1.1001 16.752 1.1001 16.7503 1.1001 16.7487C1.1001 16.7471 1.1001 16.7455 1.1001 16.7439C1.1001 16.7422 1.1001 16.7406 1.1001 16.739C1.1001 16.7374 1.1001 16.7358 1.1001 16.7342C1.1001 16.7325 1.1001 16.7309 1.1001 16.7293C1.1001 16.7277 1.1001 16.7261 1.1001 16.7245C1.1001 16.7228 1.1001 16.7212 1.1001 16.7196C1.1001 16.718 1.1001 16.7164 1.1001 16.7148C1.1001 16.7131 1.1001 16.7115 1.1001 16.7099C1.1001 16.7083 1.1001 16.7067 1.1001 16.7051C1.1001 16.7034 1.1001 16.7018 1.1001 16.7002C1.1001 16.6986 1.1001 16.697 1.1001 16.6954C1.1001 16.6938 1.1001 16.6921 1.1001 16.6905C1.1001 16.6889 1.1001 16.6873 1.1001 16.6857C1.1001 16.6841 1.1001 16.6825 1.1001 16.6809C1.1001 16.6792 1.1001 16.6776 1.1001 16.676C1.1001 16.6744 1.1001 16.6728 1.1001 16.6712C1.1001 16.6696 1.1001 16.668 1.1001 16.6663C1.1001 16.6647 1.1001 16.6631 1.1001 16.6615C1.1001 16.6599 1.1001 16.6583 1.1001 16.6567C1.1001 16.6551 1.1001 16.6534 1.1001 16.6518C1.1001 16.6502 1.1001 16.6486 1.1001 16.647C1.1001 16.6454 1.1001 16.6438 1.1001 16.6422C1.1001 16.6406 1.1001 16.639 1.1001 16.6373C1.1001 16.6357 1.1001 16.6341 1.1001 16.6325C1.1001 16.6309 1.1001 16.6293 1.1001 16.6277C1.1001 16.6261 1.1001 16.6245 1.1001 16.6229C1.1001 16.6213 1.1001 16.6196 1.1001 16.618C1.1001 16.6164 1.1001 16.6148 1.1001 16.6132C1.1001 16.6116 1.1001 16.61 1.1001 16.6084C1.1001 16.6068 1.1001 16.6052 1.1001 16.6036C1.1001 16.602 1.1001 16.6004 1.1001 16.5988C1.1001 16.5971 1.1001 16.5955 1.1001 16.5939C1.1001 16.5923 1.1001 16.5907 1.1001 16.5891C1.1001 16.5875 1.1001 16.5859 1.1001 16.5843C1.1001 16.5827 1.1001 16.5811 1.1001 16.5795C1.1001 16.5779 1.1001 16.5763 1.1001 16.5747C1.1001 16.5731 1.1001 16.5715 1.1001 16.5699C1.1001 16.5683 1.1001 16.5666 1.1001 16.565C1.1001 16.5634 1.1001 16.5618 1.1001 16.5602C1.1001 16.5586 1.1001 16.557 1.1001 16.5554C1.1001 16.5538 1.1001 16.5522 1.1001 16.5506C1.1001 16.549 1.1001 16.5474 1.1001 16.5458C1.1001 16.5442 1.1001 16.5426 1.1001 16.541C1.1001 16.5394 1.1001 16.5378 1.1001 16.5362C1.1001 16.5346 1.1001 16.533 1.1001 16.5314C1.1001 16.5298 1.1001 16.5282 1.1001 16.5266C1.1001 16.525 1.1001 16.5234 1.1001 16.5218C1.1001 16.5202 1.1001 16.5186 1.1001 16.517C1.1001 16.5154 1.1001 16.5138 1.1001 16.5122C1.1001 16.5106 1.1001 16.509 1.1001 16.5074C1.1001 16.5058 1.1001 16.5042 1.1001 16.5026C1.1001 16.501 1.1001 16.4994 1.1001 16.4978C1.1001 16.4962 1.1001 16.4946 1.1001 16.493C1.1001 16.4914 1.1001 16.4898 1.1001 16.4882C1.1001 16.4866 1.1001 16.485 1.1001 16.4834C1.1001 16.4818 1.1001 16.4802 1.1001 16.4786C1.1001 16.477 1.1001 16.4755 1.1001 16.4739C1.1001 16.4723 1.1001 16.4707 1.1001 16.4691C1.1001 16.4675 1.1001 16.4659 1.1001 16.4643C1.1001 16.4627 1.1001 16.4611 1.1001 16.4595C1.1001 16.4579 1.1001 16.4563 1.1001 16.4547C1.1001 16.4531 1.1001 16.4515 1.1001 16.4499C1.1001 16.4483 1.1001 16.4467 1.1001 16.4452C1.1001 16.4436 1.1001 16.442 1.1001 16.4404C1.1001 16.4388 1.1001 16.4372 1.1001 16.4356C1.1001 16.434 1.1001 16.4324 1.1001 16.4308C1.1001 16.4292 1.1001 16.4276 1.1001 16.426C1.1001 16.4244 1.1001 16.4229 1.1001 16.4213C1.1001 16.4197 1.1001 16.4181 1.1001 16.4165C1.1001 16.4149 1.1001 16.4133 1.1001 16.4117C1.1001 16.4101 1.1001 16.4085 1.1001 16.407C1.1001 16.4054 1.1001 16.4038 1.1001 16.4022C1.1001 16.4006 1.1001 16.399 1.1001 16.3974C1.1001 16.3958 1.1001 16.3942 1.1001 16.3926C1.1001 16.3911 1.1001 16.3895 1.1001 16.3879C1.1001 16.3863 1.1001 16.3847 1.1001 16.3831C1.1001 16.3815 1.1001 16.3799 1.1001 16.3784C1.1001 16.3768 1.1001 16.3752 1.1001 16.3736C1.1001 16.372 1.1001 16.3704 1.1001 16.3688C1.1001 16.3672 1.1001 16.3657 1.1001 16.3641C1.1001 16.3625 1.1001 16.3609 1.1001 16.3593C1.1001 16.3577 1.1001 16.3561 1.1001 16.3546C1.1001 16.353 1.1001 16.3514 1.1001 16.3498C1.1001 16.3482 1.1001 16.3466 1.1001 16.345C1.1001 16.3435 1.1001 16.3419 1.1001 16.3403C1.1001 16.3387 1.1001 16.3371 1.1001 16.3355C1.1001 16.334 1.1001 16.3324 1.1001 16.3308C1.1001 16.3292 1.1001 16.3276 1.1001 16.326C1.1001 16.3245 1.1001 16.3229 1.1001 16.3213C1.1001 16.3197 1.1001 16.3181 1.1001 16.3165C1.1001 16.315 1.1001 16.3134 1.1001 16.3118C1.1001 16.3102 1.1001 16.3086 1.1001 16.3071C1.1001 16.3055 1.1001 16.3039 1.1001 16.3023C1.1001 16.3007 1.1001 16.2992 1.1001 16.2976C1.1001 16.296 1.1001 16.2944 1.1001 16.2928C1.1001 16.2913 1.1001 16.2897 1.1001 16.2881C1.1001 16.2865 1.1001 16.2849 1.1001 16.2834C1.1001 16.2818 1.1001 16.2802 1.1001 16.2786C1.1001 16.277 1.1001 16.2755 1.1001 16.2739C1.1001 16.2723 1.1001 16.2707 1.1001 16.2692C1.1001 16.2676 1.1001 16.266 1.1001 16.2644C1.1001 16.2628 1.1001 16.2613 1.1001 16.2597C1.1001 16.2581 1.1001 16.2565 1.1001 16.255C1.1001 16.2534 1.1001 16.2518 1.1001 16.2502C1.1001 16.2487 1.1001 16.2471 1.1001 16.2455C1.1001 16.2439 1.1001 16.2424 1.1001 16.2408C1.1001 16.2392 1.1001 16.2376 1.1001 16.2361C1.1001 16.2345 1.1001 16.2329 1.1001 16.2313C1.1001 16.2298 1.1001 16.2282 1.1001 16.2266C1.1001 16.225 1.1001 16.2235 1.1001 16.2219C1.1001 16.2203 1.1001 16.2187 1.1001 16.2172C1.1001 16.2156 1.1001 16.214 1.1001 16.2125C1.1001 16.2109 1.1001 16.2093 1.1001 16.2077C1.1001 16.2062 1.1001 16.2046 1.1001 16.203C1.1001 16.2015 1.1001 16.1999 1.1001 16.1983C1.1001 16.1967 1.1001 16.1952 1.1001 16.1936C1.1001 16.192 1.1001 16.1905 1.1001 16.1889C1.1001 16.1873 1.1001 16.1858 1.1001 16.1842C1.1001 16.1826 1.1001 16.181 1.1001 16.1795C1.1001 16.1779 1.1001 16.1763 1.1001 16.1748C1.1001 16.1732 1.1001 16.1716 1.1001 16.1701C1.1001 16.1685 1.1001 16.1669 1.1001 16.1654C1.1001 16.1638 1.1001 16.1622 1.1001 16.1607C1.1001 16.1591 1.1001 16.1575 1.1001 16.156C1.1001 16.1544 1.1001 16.1528 1.1001 16.1513C1.1001 16.1497 1.1001 16.1481 1.1001 16.1466C1.1001 16.145 1.1001 16.1434 1.1001 16.1419C1.1001 16.1403 1.1001 16.1387 1.1001 16.1372C1.1001 16.1356 1.1001 16.134 1.1001 16.1325C1.1001 16.1309 1.1001 16.1293 1.1001 16.1278C1.1001 16.1262 1.1001 16.1246 1.1001 16.1231C1.1001 16.1215 1.1001 16.12 1.1001 16.1184C1.1001 16.1168 1.1001 16.1153 1.1001 16.1137C1.1001 16.1121 1.1001 16.1106 1.1001 16.109C1.1001 16.1074 1.1001 16.1059 1.1001 16.1043C1.1001 16.1028 1.1001 16.1012 1.1001 16.0996C1.1001 16.0981 1.1001 16.0965 1.1001 16.095C1.1001 16.0934 1.1001 16.0918 1.1001 16.0903C1.1001 16.0887 1.1001 16.0871 1.1001 16.0856C1.1001 16.084 1.1001 16.0825 1.1001 16.0809C1.1001 16.0794 1.1001 16.0778 1.1001 16.0762C1.1001 16.0747 1.1001 16.0731 1.1001 16.0716C1.1001 16.07 1.1001 16.0684 1.1001 16.0669C1.1001 16.0653 1.1001 16.0638 1.1001 16.0622C1.1001 16.0606 1.1001 16.0591 1.1001 16.0575C1.1001 16.056 1.1001 16.0544 1.1001 16.0529C1.1001 16.0513 1.1001 16.0497 1.1001 16.0482C1.1001 16.0466 1.1001 16.0451 1.1001 16.0435C1.1001 16.042 1.1001 16.0404 1.1001 16.0389C1.1001 16.0373 1.1001 16.0357 1.1001 16.0342C1.1001 16.0326 1.1001 16.0311 1.1001 16.0295C1.1001 16.028 1.1001 16.0264 1.1001 16.0249C1.1001 16.0233 1.1001 16.0218 1.1001 16.0202C1.1001 16.0186 1.1001 16.0171 1.1001 16.0155C1.1001 16.014 1.1001 16.0124 1.1001 16.0109C1.1001 16.0093 1.1001 16.0078 1.1001 16.0062C1.1001 16.0047 1.1001 16.0031 1.1001 16.0016C1.1001 16 1.1001 15.9985 1.1001 15.9969C1.1001 15.9954 1.1001 15.9938 1.1001 15.9923C1.1001 15.9907 1.1001 15.9892 1.1001 15.9876C1.1001 15.9861 1.1001 15.9845 1.1001 15.983C1.1001 15.9814 1.1001 15.9799 1.1001 15.9783C1.1001 15.9768 1.1001 15.9752 1.1001 15.9737C1.1001 15.9721 1.1001 15.9706 1.1001 15.969C1.1001 15.9675 1.1001 15.9659 1.1001 15.9644C1.1001 15.9628 1.1001 15.9613 1.1001 15.9597C1.1001 15.9582 1.1001 15.9566 1.1001 15.9551C1.1001 15.9535 1.1001 15.952 1.1001 15.9504C1.1001 15.9489 1.1001 15.9473 1.1001 15.9458C1.1001 15.9443 1.1001 15.9427 1.1001 15.9412C1.1001 15.9396 1.1001 15.9381 1.1001 15.9365C1.1001 15.935 1.1001 15.9334 1.1001 15.9319C1.1001 15.9303 1.1001 15.9288 1.1001 15.9273C1.1001 15.9257 1.1001 15.9242 1.1001 15.9226C1.1001 15.9211 1.1001 15.9195 1.1001 15.918C1.1001 15.9164 1.1001 15.9149 1.1001 15.9134C1.1001 15.9118 1.1001 15.9103 1.1001 15.9087C1.1001 15.9072 1.1001 15.9057 1.1001 15.9041C1.1001 15.9026 1.1001 15.901 1.1001 15.8995C1.1001 15.8979 1.1001 15.8964 1.1001 15.8949C1.1001 15.8933 1.1001 15.8918 1.1001 15.8902C1.1001 15.8887 1.1001 15.8872 1.1001 15.8856C1.1001 15.8841 1.1001 15.8825 1.1001 15.881C1.1001 15.8795 1.1001 15.8779 1.1001 15.8764C1.1001 15.8748 1.1001 15.8733 1.1001 15.8718C1.1001 15.8702 1.1001 15.8687 1.1001 15.8671C1.1001 15.8656 1.1001 15.8641 1.1001 15.8625C1.1001 15.861 1.1001 15.8595 1.1001 15.8579C1.1001 15.8564 1.1001 15.8548 1.1001 15.8533C1.1001 15.8518 1.1001 15.8502 1.1001 15.8487C1.1001 15.8472 1.1001 15.8456 1.1001 15.8441C1.1001 15.8426 1.1001 15.841 1.1001 15.8395C1.1001 15.838 1.1001 15.8364 1.1001 15.8349C1.1001 15.8333 1.1001 15.8318 1.1001 15.8303C1.1001 15.8287 1.1001 15.8272 1.1001 15.8257C1.1001 15.8241 1.1001 15.8226 1.1001 15.8211C1.1001 15.8195 1.1001 15.818 1.1001 15.8165C1.1001 15.8149 1.1001 15.8134 1.1001 15.8119C1.1001 15.8103 1.1001 15.8088 1.1001 15.8073C1.1001 15.8058 1.1001 15.8042 1.1001 15.8027C1.1001 15.8012 1.1001 15.7996 1.1001 15.7981C1.1001 15.7966 1.1001 15.795 1.1001 15.7935C1.1001 15.792 1.1001 15.7904 1.1001 15.7889C1.1001 15.7874 1.1001 15.7859 1.1001 15.7843C1.1001 15.7828 1.1001 15.7813 1.1001 15.7797C1.1001 15.7782 1.1001 15.7767 1.1001 15.7752C1.1001 15.7736 1.1001 15.7721 1.1001 15.7706C1.1001 15.769 1.1001 15.7675 1.1001 15.766C1.1001 15.7645 1.1001 15.7629 1.1001 15.7614C1.1001 15.7599 1.1001 15.7583 1.1001 15.7568C1.1001 15.7553 1.1001 15.7538 1.1001 15.7522C1.1001 15.7507 1.1001 15.7492 1.1001 15.7477C1.1001 15.7461 1.1001 15.7446 1.1001 15.7431C1.1001 15.7416 1.1001 15.74 1.1001 15.7385C1.1001 15.737 1.1001 15.7355 1.1001 15.7339C1.1001 15.7324 1.1001 15.7309 1.1001 15.7294C1.1001 15.7278 1.1001 15.7263 1.1001 15.7248C1.1001 15.7233 1.1001 15.7218 1.1001 15.7202C1.1001 15.7187 1.1001 15.7172 1.1001 15.7157C1.1001 15.7141 1.1001 15.7126 1.1001 15.7111C1.1001 15.7096 1.1001 15.7081 1.1001 15.7065C1.1001 15.705 1.1001 15.7035 1.1001 15.702C1.1001 15.7005 1.1001 15.6989 1.1001 15.6974C1.1001 15.6959 1.1001 15.6944 1.1001 15.6929C1.1001 15.6913 1.1001 15.6898 1.1001 15.6883C1.1001 15.6868 1.1001 15.6853 1.1001 15.6837C1.1001 15.6822 1.1001 15.6807 1.1001 15.6792C1.1001 15.6777 1.1001 15.6762 1.1001 15.6746C1.1001 15.6731 1.1001 15.6716 1.1001 15.6701C1.1001 15.6686 1.1001 15.6671 1.1001 15.6655C1.1001 15.664 1.1001 15.6625 1.1001 15.661C1.1001 15.6595 1.1001 15.658 1.1001 15.6564C1.1001 15.6549 1.1001 15.6534 1.1001 15.6519C1.1001 15.6504 1.1001 15.6489 1.1001 15.6474C1.1001 15.6458 1.1001 15.6443 1.1001 15.6428C1.1001 15.6413 1.1001 15.6398 1.1001 15.6383C1.1001 15.6368 1.1001 15.6352 1.1001 15.6337C1.1001 15.6322 1.1001 15.6307 1.1001 15.6292C1.1001 15.6277 1.1001 15.6262 1.1001 15.6247C1.1001 15.6231 1.1001 15.6216 1.1001 15.6201C1.1001 15.6186 1.1001 15.6171 1.1001 15.6156C1.1001 15.6141 1.1001 15.6126 1.1001 15.6111C1.1001 15.6095 1.1001 15.608 1.1001 15.6065C1.1001 15.605 1.1001 15.6035 1.1001 15.602C1.1001 15.6005 1.1001 15.599 1.1001 15.5975C1.1001 15.596 1.1001 15.5945 1.1001 15.5929C1.1001 15.5914 1.1001 15.5899 1.1001 15.5884C1.1001 15.5869 1.1001 15.5854 1.1001 15.5839C1.1001 15.5824 1.1001 15.5809 1.1001 15.5794C1.1001 15.5779 1.1001 15.5764 1.1001 15.5749C1.1001 15.5733 1.1001 15.5718 1.1001 15.5703C1.1001 15.5688 1.1001 15.5673 1.1001 15.5658C1.1001 15.5643 1.1001 15.5628 1.1001 15.5613C1.1001 15.5598 1.1001 15.5583 1.1001 15.5568C1.1001 15.5553 1.1001 15.5538 1.1001 15.5523C1.1001 15.5508 1.1001 15.5493 1.1001 15.5478C1.1001 15.5463 1.1001 15.5448 1.1001 15.5433C1.1001 15.5418 1.1001 15.5403 1.1001 15.5388C1.1001 15.5373 1.1001 15.5358 1.1001 15.5343C1.1001 15.5327 1.1001 15.5312 1.1001 15.5297C1.1001 15.5282 1.1001 15.5267 1.1001 15.5252C1.1001 15.5237 1.1001 15.5222 1.1001 15.5207C1.1001 15.5192 1.1001 15.5177 1.1001 15.5162C1.1001 15.5147 1.1001 15.5132 1.1001 15.5117C1.1001 15.5102 1.1001 15.5087 1.1001 15.5072C1.1001 15.5058 1.1001 15.5043 1.1001 15.5028C1.1001 15.5013 1.1001 15.4998 1.1001 15.4983C1.1001 15.4968 1.1001 15.4953 1.1001 15.4938C1.1001 15.4923 1.1001 15.4908 1.1001 15.4893C1.1001 15.4878 1.1001 15.4863 1.1001 15.4848C1.1001 15.4833 1.1001 15.4818 1.1001 15.4803C1.1001 15.4788 1.1001 15.4773 1.1001 15.4758C1.1001 15.4743 1.1001 15.4728 1.1001 15.4713C1.1001 15.4698 1.1001 15.4683 1.1001 15.4669C1.1001 15.4654 1.1001 15.4639 1.1001 15.4624C1.1001 15.4609 1.1001 15.4594 1.1001 15.4579C1.1001 15.4564 1.1001 15.4549 1.1001 15.4534C1.1001 15.4519 1.1001 15.4504 1.1001 15.4489C1.1001 15.4475 1.1001 15.446 1.1001 15.4445C1.1001 15.443 1.1001 15.4415 1.1001 15.44C1.1001 15.4385 1.1001 15.437 1.1001 15.4355C1.1001 15.434 1.1001 15.4325 1.1001 15.4311C1.1001 15.4296 1.1001 15.4281 1.1001 15.4266C1.1001 15.4251 1.1001 15.4236 1.1001 15.4221C1.1001 15.4206 1.1001 15.4191 1.1001 15.4177C1.1001 15.4162 1.1001 15.4147 1.1001 15.4132C1.1001 15.4117 1.1001 15.4102 1.1001 15.4087C1.1001 15.4072 1.1001 15.4058 1.1001 15.4043C1.1001 15.4028 1.1001 15.4013 1.1001 15.3998C1.1001 15.3983 1.1001 15.3968 1.1001 15.3954C1.1001 15.3939 1.1001 15.3924 1.1001 15.3909C1.1001 15.3894 1.1001 15.3879 1.1001 15.3865C1.1001 15.385 1.1001 15.3835 1.1001 15.382C1.1001 15.3805 1.1001 15.379 1.1001 15.3776C1.1001 15.3761 1.1001 15.3746 1.1001 15.3731C1.1001 15.3716 1.1001 15.3701 1.1001 15.3687C1.1001 15.3672 1.1001 15.3657 1.1001 15.3642C1.1001 15.3627 1.1001 15.3612 1.1001 15.3598C1.1001 15.3583 1.1001 15.3568 1.1001 15.3553C1.1001 15.3538 1.1001 15.3524 1.1001 15.3509C1.1001 15.3494 1.1001 15.3479 1.1001 15.3464C1.1001 15.345 1.1001 15.3435 1.1001 15.342C1.1001 15.3405 1.1001 15.3391 1.1001 15.3376C1.1001 15.3361 1.1001 15.3346 1.1001 15.3331C1.1001 15.3317 1.1001 15.3302 1.1001 15.3287C1.1001 15.3272 1.1001 15.3258 1.1001 15.3243C1.1001 15.3228 1.1001 15.3213 1.1001 15.3198C1.1001 15.3184 1.1001 15.3169 1.1001 15.3154C1.1001 15.3139 1.1001 15.3125 1.1001 15.311C1.1001 15.3095 1.1001 15.308 1.1001 15.3066C1.1001 15.3051 1.1001 15.3036 1.1001 15.3021C1.1001 15.3007 1.1001 15.2992 1.1001 15.2977C1.1001 15.2963 1.1001 15.2948 1.1001 15.2933C1.1001 15.2918 1.1001 15.2904 1.1001 15.2889C1.1001 15.2874 1.1001 15.2859 1.1001 15.2845C1.1001 15.283 1.1001 15.2815 1.1001 15.2801C1.1001 15.2786 1.1001 15.2771 1.1001 15.2756C1.1001 15.2742 1.1001 15.2727 1.1001 15.2712C1.1001 15.2698 1.1001 15.2683 1.1001 15.2668C1.1001 15.2654 1.1001 15.2639 1.1001 15.2624C1.1001 15.261 1.1001 15.2595 1.1001 15.258C1.1001 15.2565 1.1001 15.2551 1.1001 15.2536C1.1001 15.2521 1.1001 15.2507 1.1001 15.2492C1.1001 15.2477 1.1001 15.2463 1.1001 15.2448C1.1001 15.2433 1.1001 15.2419 1.1001 15.2404C1.1001 15.2389 1.1001 15.2375 1.1001 15.236C1.1001 15.2345 1.1001 15.2331 1.1001 15.2316C1.1001 15.2302 1.1001 15.2287 1.1001 15.2272C1.1001 15.2258 1.1001 15.2243 1.1001 15.2228C1.1001 15.2214 1.1001 15.2199 1.1001 15.2184C1.1001 15.217 1.1001 15.2155 1.1001 15.214C1.1001 15.2126 1.1001 15.2111 1.1001 15.2097C1.1001 15.2082 1.1001 15.2067 1.1001 15.2053C1.1001 15.2038 1.1001 15.2024 1.1001 15.2009C1.1001 15.1994 1.1001 15.198 1.1001 15.1965C1.1001 15.195 1.1001 15.1936 1.1001 15.1921C1.1001 15.1907 1.1001 15.1892 1.1001 15.1877C1.1001 15.1863 1.1001 15.1848 1.1001 15.1834C1.1001 15.1819 1.1001 15.1805 1.1001 15.179C1.1001 15.1775 1.1001 15.1761 1.1001 15.1746C1.1001 15.1732 1.1001 15.1717 1.1001 15.1702C1.1001 15.1688 1.1001 15.1673 1.1001 15.1659C1.1001 15.1644 1.1001 15.163 1.1001 15.1615C1.1001 15.1601 1.1001 15.1586 1.1001 15.1571C1.1001 15.1557 1.1001 15.1542 1.1001 15.1528C1.1001 15.1513 1.1001 15.1499 1.1001 15.1484C1.1001 15.147 1.1001 15.1455 1.1001 15.144C1.1001 15.1426 1.1001 15.1411 1.1001 15.1397C1.1001 15.1382 1.1001 15.1368 1.1001 15.1353C1.1001 15.1339 1.1001 15.1324 1.1001 15.131C1.1001 15.1295 1.1001 15.1281 1.1001 15.1266C1.1001 15.1252 1.1001 15.1237 1.1001 15.1223C1.1001 15.1208 1.1001 15.1194 1.1001 15.1179C1.1001 15.1165 1.1001 15.115 1.1001 15.1136C1.1001 15.1121 1.1001 15.1107 1.1001 15.1092C1.1001 15.1078 1.1001 15.1063 1.1001 15.1049C1.1001 15.1034 1.1001 15.102 1.1001 15.1005C1.1001 15.0991 1.1001 15.0976 1.1001 15.0962C1.1001 15.0947 1.1001 15.0933 1.1001 15.0918C1.1001 15.0904 1.1001 15.0889 1.1001 15.0875C1.1001 15.086 1.1001 15.0846 1.1001 15.0832C1.1001 15.0817 1.1001 15.0803 1.1001 15.0788C1.1001 15.0774 1.1001 15.0759 1.1001 15.0745C1.1001 15.073 1.1001 15.0716 1.1001 15.0702C1.1001 15.0687 1.1001 15.0673 1.1001 15.0658C1.1001 15.0644 1.1001 15.0629 1.1001 15.0615C1.1001 15.06 1.1001 15.0586 1.1001 15.0572C1.1001 15.0557 1.1001 15.0543 1.1001 15.0528C1.1001 15.0514 1.1001 15.05 1.1001 15.0485C1.1001 15.0471 1.1001 15.0456 1.1001 15.0442C1.1001 15.0427 1.1001 15.0413 1.1001 15.0399C1.1001 15.0384 1.1001 15.037 1.1001 15.0355C1.1001 15.0341 1.1001 15.0327 1.1001 15.0312C1.1001 15.0298 1.1001 15.0284 1.1001 15.0269C1.1001 15.0255 1.1001 15.024 1.1001 15.0226C1.1001 15.0212 1.1001 15.0197 1.1001 15.0183C1.1001 15.0168 1.1001 15.0154 1.1001 15.014C1.1001 15.0125 1.1001 15.0111 1.1001 15.0097C1.1001 15.0082 1.1001 15.0068 1.1001 15.0054C1.1001 15.0039 1.1001 15.0025 1.1001 15.0011C1.1001 14.9996 1.1001 14.9982 1.1001 14.9968C1.1001 14.9953 1.1001 14.9939 1.1001 14.9924H0.100098C0.100098 14.9939 0.100098 14.9953 0.100098 14.9968C0.100098 14.9982 0.100098 14.9996 0.100098 15.0011C0.100098 15.0025 0.100098 15.0039 0.100098 15.0054C0.100098 15.0068 0.100098 15.0082 0.100098 15.0097C0.100098 15.0111 0.100098 15.0125 0.100098 15.014C0.100098 15.0154 0.100098 15.0168 0.100098 15.0183C0.100098 15.0197 0.100098 15.0212 0.100098 15.0226C0.100098 15.024 0.100098 15.0255 0.100098 15.0269C0.100098 15.0284 0.100098 15.0298 0.100098 15.0312C0.100098 15.0327 0.100098 15.0341 0.100098 15.0355C0.100098 15.037 0.100098 15.0384 0.100098 15.0399C0.100098 15.0413 0.100098 15.0427 0.100098 15.0442C0.100098 15.0456 0.100098 15.0471 0.100098 15.0485C0.100098 15.05 0.100098 15.0514 0.100098 15.0528C0.100098 15.0543 0.100098 15.0557 0.100098 15.0572C0.100098 15.0586 0.100098 15.06 0.100098 15.0615C0.100098 15.0629 0.100098 15.0644 0.100098 15.0658C0.100098 15.0673 0.100098 15.0687 0.100098 15.0702C0.100098 15.0716 0.100098 15.073 0.100098 15.0745C0.100098 15.0759 0.100098 15.0774 0.100098 15.0788C0.100098 15.0803 0.100098 15.0817 0.100098 15.0832C0.100098 15.0846 0.100098 15.086 0.100098 15.0875C0.100098 15.0889 0.100098 15.0904 0.100098 15.0918C0.100098 15.0933 0.100098 15.0947 0.100098 15.0962C0.100098 15.0976 0.100098 15.0991 0.100098 15.1005C0.100098 15.102 0.100098 15.1034 0.100098 15.1049C0.100098 15.1063 0.100098 15.1078 0.100098 15.1092C0.100098 15.1107 0.100098 15.1121 0.100098 15.1136C0.100098 15.115 0.100098 15.1165 0.100098 15.1179C0.100098 15.1194 0.100098 15.1208 0.100098 15.1223C0.100098 15.1237 0.100098 15.1252 0.100098 15.1266C0.100098 15.1281 0.100098 15.1295 0.100098 15.131C0.100098 15.1324 0.100098 15.1339 0.100098 15.1353C0.100098 15.1368 0.100098 15.1382 0.100098 15.1397C0.100098 15.1411 0.100098 15.1426 0.100098 15.144C0.100098 15.1455 0.100098 15.147 0.100098 15.1484C0.100098 15.1499 0.100098 15.1513 0.100098 15.1528C0.100098 15.1542 0.100098 15.1557 0.100098 15.1571C0.100098 15.1586 0.100098 15.1601 0.100098 15.1615C0.100098 15.163 0.100098 15.1644 0.100098 15.1659C0.100098 15.1673 0.100098 15.1688 0.100098 15.1702C0.100098 15.1717 0.100098 15.1732 0.100098 15.1746C0.100098 15.1761 0.100098 15.1775 0.100098 15.179C0.100098 15.1805 0.100098 15.1819 0.100098 15.1834C0.100098 15.1848 0.100098 15.1863 0.100098 15.1877C0.100098 15.1892 0.100098 15.1907 0.100098 15.1921C0.100098 15.1936 0.100098 15.195 0.100098 15.1965C0.100098 15.198 0.100098 15.1994 0.100098 15.2009C0.100098 15.2024 0.100098 15.2038 0.100098 15.2053C0.100098 15.2067 0.100098 15.2082 0.100098 15.2097C0.100098 15.2111 0.100098 15.2126 0.100098 15.214C0.100098 15.2155 0.100098 15.217 0.100098 15.2184C0.100098 15.2199 0.100098 15.2214 0.100098 15.2228C0.100098 15.2243 0.100098 15.2258 0.100098 15.2272C0.100098 15.2287 0.100098 15.2302 0.100098 15.2316C0.100098 15.2331 0.100098 15.2345 0.100098 15.236C0.100098 15.2375 0.100098 15.2389 0.100098 15.2404C0.100098 15.2419 0.100098 15.2433 0.100098 15.2448C0.100098 15.2463 0.100098 15.2477 0.100098 15.2492C0.100098 15.2507 0.100098 15.2521 0.100098 15.2536C0.100098 15.2551 0.100098 15.2565 0.100098 15.258C0.100098 15.2595 0.100098 15.261 0.100098 15.2624C0.100098 15.2639 0.100098 15.2654 0.100098 15.2668C0.100098 15.2683 0.100098 15.2698 0.100098 15.2712C0.100098 15.2727 0.100098 15.2742 0.100098 15.2756C0.100098 15.2771 0.100098 15.2786 0.100098 15.2801C0.100098 15.2815 0.100098 15.283 0.100098 15.2845C0.100098 15.2859 0.100098 15.2874 0.100098 15.2889C0.100098 15.2904 0.100098 15.2918 0.100098 15.2933C0.100098 15.2948 0.100098 15.2963 0.100098 15.2977C0.100098 15.2992 0.100098 15.3007 0.100098 15.3021C0.100098 15.3036 0.100098 15.3051 0.100098 15.3066C0.100098 15.308 0.100098 15.3095 0.100098 15.311C0.100098 15.3125 0.100098 15.3139 0.100098 15.3154C0.100098 15.3169 0.100098 15.3184 0.100098 15.3198C0.100098 15.3213 0.100098 15.3228 0.100098 15.3243C0.100098 15.3258 0.100098 15.3272 0.100098 15.3287C0.100098 15.3302 0.100098 15.3317 0.100098 15.3331C0.100098 15.3346 0.100098 15.3361 0.100098 15.3376C0.100098 15.3391 0.100098 15.3405 0.100098 15.342C0.100098 15.3435 0.100098 15.345 0.100098 15.3464C0.100098 15.3479 0.100098 15.3494 0.100098 15.3509C0.100098 15.3524 0.100098 15.3538 0.100098 15.3553C0.100098 15.3568 0.100098 15.3583 0.100098 15.3598C0.100098 15.3612 0.100098 15.3627 0.100098 15.3642C0.100098 15.3657 0.100098 15.3672 0.100098 15.3687C0.100098 15.3701 0.100098 15.3716 0.100098 15.3731C0.100098 15.3746 0.100098 15.3761 0.100098 15.3776C0.100098 15.379 0.100098 15.3805 0.100098 15.382C0.100098 15.3835 0.100098 15.385 0.100098 15.3865C0.100098 15.3879 0.100098 15.3894 0.100098 15.3909C0.100098 15.3924 0.100098 15.3939 0.100098 15.3954C0.100098 15.3968 0.100098 15.3983 0.100098 15.3998C0.100098 15.4013 0.100098 15.4028 0.100098 15.4043C0.100098 15.4058 0.100098 15.4072 0.100098 15.4087C0.100098 15.4102 0.100098 15.4117 0.100098 15.4132C0.100098 15.4147 0.100098 15.4162 0.100098 15.4177C0.100098 15.4191 0.100098 15.4206 0.100098 15.4221C0.100098 15.4236 0.100098 15.4251 0.100098 15.4266C0.100098 15.4281 0.100098 15.4296 0.100098 15.4311C0.100098 15.4325 0.100098 15.434 0.100098 15.4355C0.100098 15.437 0.100098 15.4385 0.100098 15.44C0.100098 15.4415 0.100098 15.443 0.100098 15.4445C0.100098 15.446 0.100098 15.4475 0.100098 15.4489C0.100098 15.4504 0.100098 15.4519 0.100098 15.4534C0.100098 15.4549 0.100098 15.4564 0.100098 15.4579C0.100098 15.4594 0.100098 15.4609 0.100098 15.4624C0.100098 15.4639 0.100098 15.4654 0.100098 15.4669C0.100098 15.4683 0.100098 15.4698 0.100098 15.4713C0.100098 15.4728 0.100098 15.4743 0.100098 15.4758C0.100098 15.4773 0.100098 15.4788 0.100098 15.4803C0.100098 15.4818 0.100098 15.4833 0.100098 15.4848C0.100098 15.4863 0.100098 15.4878 0.100098 15.4893C0.100098 15.4908 0.100098 15.4923 0.100098 15.4938C0.100098 15.4953 0.100098 15.4968 0.100098 15.4983C0.100098 15.4998 0.100098 15.5013 0.100098 15.5028C0.100098 15.5043 0.100098 15.5058 0.100098 15.5072C0.100098 15.5087 0.100098 15.5102 0.100098 15.5117C0.100098 15.5132 0.100098 15.5147 0.100098 15.5162C0.100098 15.5177 0.100098 15.5192 0.100098 15.5207C0.100098 15.5222 0.100098 15.5237 0.100098 15.5252C0.100098 15.5267 0.100098 15.5282 0.100098 15.5297C0.100098 15.5312 0.100098 15.5327 0.100098 15.5343C0.100098 15.5358 0.100098 15.5373 0.100098 15.5388C0.100098 15.5403 0.100098 15.5418 0.100098 15.5433C0.100098 15.5448 0.100098 15.5463 0.100098 15.5478C0.100098 15.5493 0.100098 15.5508 0.100098 15.5523C0.100098 15.5538 0.100098 15.5553 0.100098 15.5568C0.100098 15.5583 0.100098 15.5598 0.100098 15.5613C0.100098 15.5628 0.100098 15.5643 0.100098 15.5658C0.100098 15.5673 0.100098 15.5688 0.100098 15.5703C0.100098 15.5718 0.100098 15.5733 0.100098 15.5749C0.100098 15.5764 0.100098 15.5779 0.100098 15.5794C0.100098 15.5809 0.100098 15.5824 0.100098 15.5839C0.100098 15.5854 0.100098 15.5869 0.100098 15.5884C0.100098 15.5899 0.100098 15.5914 0.100098 15.5929C0.100098 15.5945 0.100098 15.596 0.100098 15.5975C0.100098 15.599 0.100098 15.6005 0.100098 15.602C0.100098 15.6035 0.100098 15.605 0.100098 15.6065C0.100098 15.608 0.100098 15.6095 0.100098 15.6111C0.100098 15.6126 0.100098 15.6141 0.100098 15.6156C0.100098 15.6171 0.100098 15.6186 0.100098 15.6201C0.100098 15.6216 0.100098 15.6231 0.100098 15.6247C0.100098 15.6262 0.100098 15.6277 0.100098 15.6292C0.100098 15.6307 0.100098 15.6322 0.100098 15.6337C0.100098 15.6352 0.100098 15.6368 0.100098 15.6383C0.100098 15.6398 0.100098 15.6413 0.100098 15.6428C0.100098 15.6443 0.100098 15.6458 0.100098 15.6474C0.100098 15.6489 0.100098 15.6504 0.100098 15.6519C0.100098 15.6534 0.100098 15.6549 0.100098 15.6564C0.100098 15.658 0.100098 15.6595 0.100098 15.661C0.100098 15.6625 0.100098 15.664 0.100098 15.6655C0.100098 15.6671 0.100098 15.6686 0.100098 15.6701C0.100098 15.6716 0.100098 15.6731 0.100098 15.6746C0.100098 15.6762 0.100098 15.6777 0.100098 15.6792C0.100098 15.6807 0.100098 15.6822 0.100098 15.6837C0.100098 15.6853 0.100098 15.6868 0.100098 15.6883C0.100098 15.6898 0.100098 15.6913 0.100098 15.6929C0.100098 15.6944 0.100098 15.6959 0.100098 15.6974C0.100098 15.6989 0.100098 15.7005 0.100098 15.702C0.100098 15.7035 0.100098 15.705 0.100098 15.7065C0.100098 15.7081 0.100098 15.7096 0.100098 15.7111C0.100098 15.7126 0.100098 15.7141 0.100098 15.7157C0.100098 15.7172 0.100098 15.7187 0.100098 15.7202C0.100098 15.7218 0.100098 15.7233 0.100098 15.7248C0.100098 15.7263 0.100098 15.7278 0.100098 15.7294C0.100098 15.7309 0.100098 15.7324 0.100098 15.7339C0.100098 15.7355 0.100098 15.737 0.100098 15.7385C0.100098 15.74 0.100098 15.7416 0.100098 15.7431C0.100098 15.7446 0.100098 15.7461 0.100098 15.7477C0.100098 15.7492 0.100098 15.7507 0.100098 15.7522C0.100098 15.7538 0.100098 15.7553 0.100098 15.7568C0.100098 15.7583 0.100098 15.7599 0.100098 15.7614C0.100098 15.7629 0.100098 15.7645 0.100098 15.766C0.100098 15.7675 0.100098 15.769 0.100098 15.7706C0.100098 15.7721 0.100098 15.7736 0.100098 15.7752C0.100098 15.7767 0.100098 15.7782 0.100098 15.7797C0.100098 15.7813 0.100098 15.7828 0.100098 15.7843C0.100098 15.7859 0.100098 15.7874 0.100098 15.7889C0.100098 15.7904 0.100098 15.792 0.100098 15.7935C0.100098 15.795 0.100098 15.7966 0.100098 15.7981C0.100098 15.7996 0.100098 15.8012 0.100098 15.8027C0.100098 15.8042 0.100098 15.8058 0.100098 15.8073C0.100098 15.8088 0.100098 15.8103 0.100098 15.8119C0.100098 15.8134 0.100098 15.8149 0.100098 15.8165C0.100098 15.818 0.100098 15.8195 0.100098 15.8211C0.100098 15.8226 0.100098 15.8241 0.100098 15.8257C0.100098 15.8272 0.100098 15.8287 0.100098 15.8303C0.100098 15.8318 0.100098 15.8333 0.100098 15.8349C0.100098 15.8364 0.100098 15.838 0.100098 15.8395C0.100098 15.841 0.100098 15.8426 0.100098 15.8441C0.100098 15.8456 0.100098 15.8472 0.100098 15.8487C0.100098 15.8502 0.100098 15.8518 0.100098 15.8533C0.100098 15.8548 0.100098 15.8564 0.100098 15.8579C0.100098 15.8595 0.100098 15.861 0.100098 15.8625C0.100098 15.8641 0.100098 15.8656 0.100098 15.8671C0.100098 15.8687 0.100098 15.8702 0.100098 15.8718C0.100098 15.8733 0.100098 15.8748 0.100098 15.8764C0.100098 15.8779 0.100098 15.8795 0.100098 15.881C0.100098 15.8825 0.100098 15.8841 0.100098 15.8856C0.100098 15.8872 0.100098 15.8887 0.100098 15.8902C0.100098 15.8918 0.100098 15.8933 0.100098 15.8949C0.100098 15.8964 0.100098 15.8979 0.100098 15.8995C0.100098 15.901 0.100098 15.9026 0.100098 15.9041C0.100098 15.9057 0.100098 15.9072 0.100098 15.9087C0.100098 15.9103 0.100098 15.9118 0.100098 15.9134C0.100098 15.9149 0.100098 15.9164 0.100098 15.918C0.100098 15.9195 0.100098 15.9211 0.100098 15.9226C0.100098 15.9242 0.100098 15.9257 0.100098 15.9273C0.100098 15.9288 0.100098 15.9303 0.100098 15.9319C0.100098 15.9334 0.100098 15.935 0.100098 15.9365C0.100098 15.9381 0.100098 15.9396 0.100098 15.9412C0.100098 15.9427 0.100098 15.9443 0.100098 15.9458C0.100098 15.9473 0.100098 15.9489 0.100098 15.9504C0.100098 15.952 0.100098 15.9535 0.100098 15.9551C0.100098 15.9566 0.100098 15.9582 0.100098 15.9597C0.100098 15.9613 0.100098 15.9628 0.100098 15.9644C0.100098 15.9659 0.100098 15.9675 0.100098 15.969C0.100098 15.9706 0.100098 15.9721 0.100098 15.9737C0.100098 15.9752 0.100098 15.9768 0.100098 15.9783C0.100098 15.9799 0.100098 15.9814 0.100098 15.983C0.100098 15.9845 0.100098 15.9861 0.100098 15.9876C0.100098 15.9892 0.100098 15.9907 0.100098 15.9923C0.100098 15.9938 0.100098 15.9954 0.100098 15.9969C0.100098 15.9985 0.100098 16 0.100098 16.0016C0.100098 16.0031 0.100098 16.0047 0.100098 16.0062C0.100098 16.0078 0.100098 16.0093 0.100098 16.0109C0.100098 16.0124 0.100098 16.014 0.100098 16.0155C0.100098 16.0171 0.100098 16.0186 0.100098 16.0202C0.100098 16.0218 0.100098 16.0233 0.100098 16.0249C0.100098 16.0264 0.100098 16.028 0.100098 16.0295C0.100098 16.0311 0.100098 16.0326 0.100098 16.0342C0.100098 16.0357 0.100098 16.0373 0.100098 16.0389C0.100098 16.0404 0.100098 16.042 0.100098 16.0435C0.100098 16.0451 0.100098 16.0466 0.100098 16.0482C0.100098 16.0497 0.100098 16.0513 0.100098 16.0529C0.100098 16.0544 0.100098 16.056 0.100098 16.0575C0.100098 16.0591 0.100098 16.0606 0.100098 16.0622C0.100098 16.0638 0.100098 16.0653 0.100098 16.0669C0.100098 16.0684 0.100098 16.07 0.100098 16.0716C0.100098 16.0731 0.100098 16.0747 0.100098 16.0762C0.100098 16.0778 0.100098 16.0794 0.100098 16.0809C0.100098 16.0825 0.100098 16.084 0.100098 16.0856C0.100098 16.0871 0.100098 16.0887 0.100098 16.0903C0.100098 16.0918 0.100098 16.0934 0.100098 16.095C0.100098 16.0965 0.100098 16.0981 0.100098 16.0996C0.100098 16.1012 0.100098 16.1028 0.100098 16.1043C0.100098 16.1059 0.100098 16.1074 0.100098 16.109C0.100098 16.1106 0.100098 16.1121 0.100098 16.1137C0.100098 16.1153 0.100098 16.1168 0.100098 16.1184C0.100098 16.12 0.100098 16.1215 0.100098 16.1231C0.100098 16.1246 0.100098 16.1262 0.100098 16.1278C0.100098 16.1293 0.100098 16.1309 0.100098 16.1325C0.100098 16.134 0.100098 16.1356 0.100098 16.1372C0.100098 16.1387 0.100098 16.1403 0.100098 16.1419C0.100098 16.1434 0.100098 16.145 0.100098 16.1466C0.100098 16.1481 0.100098 16.1497 0.100098 16.1513C0.100098 16.1528 0.100098 16.1544 0.100098 16.156C0.100098 16.1575 0.100098 16.1591 0.100098 16.1607C0.100098 16.1622 0.100098 16.1638 0.100098 16.1654C0.100098 16.1669 0.100098 16.1685 0.100098 16.1701C0.100098 16.1716 0.100098 16.1732 0.100098 16.1748C0.100098 16.1763 0.100098 16.1779 0.100098 16.1795C0.100098 16.181 0.100098 16.1826 0.100098 16.1842C0.100098 16.1858 0.100098 16.1873 0.100098 16.1889C0.100098 16.1905 0.100098 16.192 0.100098 16.1936C0.100098 16.1952 0.100098 16.1967 0.100098 16.1983C0.100098 16.1999 0.100098 16.2015 0.100098 16.203C0.100098 16.2046 0.100098 16.2062 0.100098 16.2077C0.100098 16.2093 0.100098 16.2109 0.100098 16.2125C0.100098 16.214 0.100098 16.2156 0.100098 16.2172C0.100098 16.2187 0.100098 16.2203 0.100098 16.2219C0.100098 16.2235 0.100098 16.225 0.100098 16.2266C0.100098 16.2282 0.100098 16.2298 0.100098 16.2313C0.100098 16.2329 0.100098 16.2345 0.100098 16.2361C0.100098 16.2376 0.100098 16.2392 0.100098 16.2408C0.100098 16.2424 0.100098 16.2439 0.100098 16.2455C0.100098 16.2471 0.100098 16.2487 0.100098 16.2502C0.100098 16.2518 0.100098 16.2534 0.100098 16.255C0.100098 16.2565 0.100098 16.2581 0.100098 16.2597C0.100098 16.2613 0.100098 16.2628 0.100098 16.2644C0.100098 16.266 0.100098 16.2676 0.100098 16.2692C0.100098 16.2707 0.100098 16.2723 0.100098 16.2739C0.100098 16.2755 0.100098 16.277 0.100098 16.2786C0.100098 16.2802 0.100098 16.2818 0.100098 16.2834C0.100098 16.2849 0.100098 16.2865 0.100098 16.2881C0.100098 16.2897 0.100098 16.2913 0.100098 16.2928C0.100098 16.2944 0.100098 16.296 0.100098 16.2976C0.100098 16.2992 0.100098 16.3007 0.100098 16.3023C0.100098 16.3039 0.100098 16.3055 0.100098 16.3071C0.100098 16.3086 0.100098 16.3102 0.100098 16.3118C0.100098 16.3134 0.100098 16.315 0.100098 16.3165C0.100098 16.3181 0.100098 16.3197 0.100098 16.3213C0.100098 16.3229 0.100098 16.3245 0.100098 16.326C0.100098 16.3276 0.100098 16.3292 0.100098 16.3308C0.100098 16.3324 0.100098 16.334 0.100098 16.3355C0.100098 16.3371 0.100098 16.3387 0.100098 16.3403C0.100098 16.3419 0.100098 16.3435 0.100098 16.345C0.100098 16.3466 0.100098 16.3482 0.100098 16.3498C0.100098 16.3514 0.100098 16.353 0.100098 16.3546C0.100098 16.3561 0.100098 16.3577 0.100098 16.3593C0.100098 16.3609 0.100098 16.3625 0.100098 16.3641C0.100098 16.3657 0.100098 16.3672 0.100098 16.3688C0.100098 16.3704 0.100098 16.372 0.100098 16.3736C0.100098 16.3752 0.100098 16.3768 0.100098 16.3784C0.100098 16.3799 0.100098 16.3815 0.100098 16.3831C0.100098 16.3847 0.100098 16.3863 0.100098 16.3879C0.100098 16.3895 0.100098 16.3911 0.100098 16.3926C0.100098 16.3942 0.100098 16.3958 0.100098 16.3974C0.100098 16.399 0.100098 16.4006 0.100098 16.4022C0.100098 16.4038 0.100098 16.4054 0.100098 16.407C0.100098 16.4085 0.100098 16.4101 0.100098 16.4117C0.100098 16.4133 0.100098 16.4149 0.100098 16.4165C0.100098 16.4181 0.100098 16.4197 0.100098 16.4213C0.100098 16.4229 0.100098 16.4244 0.100098 16.426C0.100098 16.4276 0.100098 16.4292 0.100098 16.4308C0.100098 16.4324 0.100098 16.434 0.100098 16.4356C0.100098 16.4372 0.100098 16.4388 0.100098 16.4404C0.100098 16.442 0.100098 16.4436 0.100098 16.4452C0.100098 16.4467 0.100098 16.4483 0.100098 16.4499C0.100098 16.4515 0.100098 16.4531 0.100098 16.4547C0.100098 16.4563 0.100098 16.4579 0.100098 16.4595C0.100098 16.4611 0.100098 16.4627 0.100098 16.4643C0.100098 16.4659 0.100098 16.4675 0.100098 16.4691C0.100098 16.4707 0.100098 16.4723 0.100098 16.4739C0.100098 16.4755 0.100098 16.477 0.100098 16.4786C0.100098 16.4802 0.100098 16.4818 0.100098 16.4834C0.100098 16.485 0.100098 16.4866 0.100098 16.4882C0.100098 16.4898 0.100098 16.4914 0.100098 16.493C0.100098 16.4946 0.100098 16.4962 0.100098 16.4978C0.100098 16.4994 0.100098 16.501 0.100098 16.5026C0.100098 16.5042 0.100098 16.5058 0.100098 16.5074C0.100098 16.509 0.100098 16.5106 0.100098 16.5122C0.100098 16.5138 0.100098 16.5154 0.100098 16.517C0.100098 16.5186 0.100098 16.5202 0.100098 16.5218C0.100098 16.5234 0.100098 16.525 0.100098 16.5266C0.100098 16.5282 0.100098 16.5298 0.100098 16.5314C0.100098 16.533 0.100098 16.5346 0.100098 16.5362C0.100098 16.5378 0.100098 16.5394 0.100098 16.541C0.100098 16.5426 0.100098 16.5442 0.100098 16.5458C0.100098 16.5474 0.100098 16.549 0.100098 16.5506C0.100098 16.5522 0.100098 16.5538 0.100098 16.5554C0.100098 16.557 0.100098 16.5586 0.100098 16.5602C0.100098 16.5618 0.100098 16.5634 0.100098 16.565C0.100098 16.5666 0.100098 16.5683 0.100098 16.5699C0.100098 16.5715 0.100098 16.5731 0.100098 16.5747C0.100098 16.5763 0.100098 16.5779 0.100098 16.5795C0.100098 16.5811 0.100098 16.5827 0.100098 16.5843C0.100098 16.5859 0.100098 16.5875 0.100098 16.5891C0.100098 16.5907 0.100098 16.5923 0.100098 16.5939C0.100098 16.5955 0.100098 16.5971 0.100098 16.5988C0.100098 16.6004 0.100098 16.602 0.100098 16.6036C0.100098 16.6052 0.100098 16.6068 0.100098 16.6084C0.100098 16.61 0.100098 16.6116 0.100098 16.6132C0.100098 16.6148 0.100098 16.6164 0.100098 16.618C0.100098 16.6196 0.100098 16.6213 0.100098 16.6229C0.100098 16.6245 0.100098 16.6261 0.100098 16.6277C0.100098 16.6293 0.100098 16.6309 0.100098 16.6325C0.100098 16.6341 0.100098 16.6357 0.100098 16.6373C0.100098 16.639 0.100098 16.6406 0.100098 16.6422C0.100098 16.6438 0.100098 16.6454 0.100098 16.647C0.100098 16.6486 0.100098 16.6502 0.100098 16.6518C0.100098 16.6534 0.100098 16.6551 0.100098 16.6567C0.100098 16.6583 0.100098 16.6599 0.100098 16.6615C0.100098 16.6631 0.100098 16.6647 0.100098 16.6663C0.100098 16.668 0.100098 16.6696 0.100098 16.6712C0.100098 16.6728 0.100098 16.6744 0.100098 16.676C0.100098 16.6776 0.100098 16.6792 0.100098 16.6809C0.100098 16.6825 0.100098 16.6841 0.100098 16.6857C0.100098 16.6873 0.100098 16.6889 0.100098 16.6905C0.100098 16.6921 0.100098 16.6938 0.100098 16.6954C0.100098 16.697 0.100098 16.6986 0.100098 16.7002C0.100098 16.7018 0.100098 16.7034 0.100098 16.7051C0.100098 16.7067 0.100098 16.7083 0.100098 16.7099C0.100098 16.7115 0.100098 16.7131 0.100098 16.7148C0.100098 16.7164 0.100098 16.718 0.100098 16.7196C0.100098 16.7212 0.100098 16.7228 0.100098 16.7245C0.100098 16.7261 0.100098 16.7277 0.100098 16.7293C0.100098 16.7309 0.100098 16.7325 0.100098 16.7342C0.100098 16.7358 0.100098 16.7374 0.100098 16.739C0.100098 16.7406 0.100098 16.7422 0.100098 16.7439C0.100098 16.7455 0.100098 16.7471 0.100098 16.7487C0.100098 16.7503 0.100098 16.752 0.100098 16.7536C0.100098 16.7552 0.100098 16.7568 0.100098 16.7584C0.100098 16.7601 0.100098 16.7617 0.100098 16.7633C0.100098 16.7649 0.100098 16.7665 0.100098 16.7682C0.100098 16.7698 0.100098 16.7714 0.100098 16.773C0.100098 16.7746 0.100098 16.7763 0.100098 16.7779C0.100098 16.7795 0.100098 16.7811 0.100098 16.7827C0.100098 16.7844 0.100098 16.786 0.100098 16.7876C0.100098 16.7892 0.100098 16.7908 0.100098 16.7925C0.100098 16.7941 0.100098 16.7957 0.100098 16.7973C0.100098 16.799 0.100098 16.8006 0.100098 16.8022C0.100098 16.8038 0.100098 16.8055 0.100098 16.8071C0.100098 16.8087 0.100098 16.8103 0.100098 16.8119C0.100098 16.8136 0.100098 16.8152 0.100098 16.8168C0.100098 16.8184 0.100098 16.8201 0.100098 16.8217C0.100098 16.8233 0.100098 16.8249 0.100098 16.8266C0.100098 16.8282 0.100098 16.8298 0.100098 16.8314C0.100098 16.8331 0.100098 16.8347 0.100098 16.8363C0.100098 16.8379 0.100098 16.8396 0.100098 16.8412C0.100098 16.8428 0.100098 16.8444 0.100098 16.8461C0.100098 16.8477 0.100098 16.8493 0.100098 16.8509C0.100098 16.8526 0.100098 16.8542 0.100098 16.8558C0.100098 16.8575 0.100098 16.8591 0.100098 16.8607C0.100098 16.8623 0.100098 16.864 0.100098 16.8656C0.100098 16.8672 0.100098 16.8688 0.100098 16.8705C0.100098 16.8721 0.100098 16.8737 0.100098 16.8754C0.100098 16.877 0.100098 16.8786 0.100098 16.8802C0.100098 16.8819 0.100098 16.8835 0.100098 16.8851C0.100098 16.8868 0.100098 16.8884 0.100098 16.89C0.100098 16.8916 0.100098 16.8933 0.100098 16.8949C0.100098 16.8965 0.100098 16.8982 0.100098 16.8998C0.100098 16.9014 0.100098 16.9031 0.100098 16.9047C0.100098 16.9063 0.100098 16.908 0.100098 16.9096C0.100098 16.9112 0.100098 16.9128 0.100098 16.9145C0.100098 16.9161 0.100098 16.9177 0.100098 16.9194C0.100098 16.921 0.100098 16.9226 0.100098 16.9243C0.100098 16.9259 0.100098 16.9275 0.100098 16.9292C0.100098 16.9308 0.100098 16.9324 0.100098 16.9341C0.100098 16.9357 0.100098 16.9373 0.100098 16.939C0.100098 16.9406 0.100098 16.9422 0.100098 16.9439C0.100098 16.9455 0.100098 16.9471 0.100098 16.9488C0.100098 16.9504 0.100098 16.952 0.100098 16.9537C0.100098 16.9553 0.100098 16.9569 0.100098 16.9586C0.100098 16.9602 0.100098 16.9618 0.100098 16.9635C0.100098 16.9651 0.100098 16.9667 0.100098 16.9684C0.100098 16.97 0.100098 16.9717 0.100098 16.9733C0.100098 16.9749 0.100098 16.9766 0.100098 16.9782C0.100098 16.9798 0.100098 16.9815 0.100098 16.9831C0.100098 16.9847 0.100098 16.9864 0.100098 16.988C0.100098 16.9897 0.100098 16.9913 0.100098 16.9929C0.100098 16.9946 0.100098 16.9962 0.100098 16.9978C0.100098 16.9995 0.100098 17.0011 0.100098 17.0027C0.100098 17.0044 0.100098 17.006 0.100098 17.0077C0.100098 17.0093 0.100098 17.0109 0.100098 17.0126C0.100098 17.0142 0.100098 17.0159 0.100098 17.0175C0.100098 17.0191 0.100098 17.0208 0.100098 17.0224C0.100098 17.0241 0.100098 17.0257 0.100098 17.0273C0.100098 17.029 0.100098 17.0306 0.100098 17.0323C0.100098 17.0339 0.100098 17.0355 0.100098 17.0372C0.100098 17.0388 0.100098 17.0405 0.100098 17.0421C0.100098 17.0437 0.100098 17.0454 0.100098 17.047C0.100098 17.0487 0.100098 17.0503 0.100098 17.0519C0.100098 17.0536 0.100098 17.0552 0.100098 17.0569C0.100098 17.0585 0.100098 17.0601 0.100098 17.0618C0.100098 17.0634 0.100098 17.0651 0.100098 17.0667C0.100098 17.0684 0.100098 17.07 0.100098 17.0716C0.100098 17.0733 0.100098 17.0749 0.100098 17.0766C0.100098 17.0782 0.100098 17.0799 0.100098 17.0815C0.100098 17.0831 0.100098 17.0848 0.100098 17.0864C0.100098 17.0881 0.100098 17.0897 0.100098 17.0914C0.100098 17.093 0.100098 17.0947 0.100098 17.0963C0.100098 17.0979 0.100098 17.0996 0.100098 17.1012C0.100098 17.1029 0.100098 17.1045 0.100098 17.1062C0.100098 17.1078 0.100098 17.1095 0.100098 17.1111C0.100098 17.1128 0.100098 17.1144 0.100098 17.116C0.100098 17.1177 0.100098 17.1193 0.100098 17.121C0.100098 17.1226 0.100098 17.1243 0.100098 17.1259C0.100098 17.1276 0.100098 17.1292 0.100098 17.1309C0.100098 17.1325 0.100098 17.1342 0.100098 17.1358C0.100098 17.1375 0.100098 17.1391 0.100098 17.1407C0.100098 17.1424 0.100098 17.144 0.100098 17.1457C0.100098 17.1473 0.100098 17.149 0.100098 17.1506C0.100098 17.1523 0.100098 17.1539 0.100098 17.1556C0.100098 17.1572 0.100098 17.1589 0.100098 17.1605C0.100098 17.1622 0.100098 17.1638 0.100098 17.1655C0.100098 17.1671 0.100098 17.1688 0.100098 17.1704C0.100098 17.1721 0.100098 17.1737 0.100098 17.1754C0.100098 17.177 0.100098 17.1787 0.100098 17.1803C0.100098 17.182 0.100098 17.1836 0.100098 17.1853C0.100098 17.1869 0.100098 17.1886 0.100098 17.1902C0.100098 17.1919 0.100098 17.1935 0.100098 17.1952C0.100098 17.1968 0.100098 17.1985 0.100098 17.2001C0.100098 17.2018 0.100098 17.2034 0.100098 17.2051C0.100098 17.2067 0.100098 17.2084 0.100098 17.2101C0.100098 17.2117 0.100098 17.2134 0.100098 17.215C0.100098 17.2167 0.100098 17.2183 0.100098 17.22C0.100098 17.2216 0.100098 17.2233 0.100098 17.2249C0.100098 17.2266 0.100098 17.2282 0.100098 17.2299C0.100098 17.2315 0.100098 17.2332 0.100098 17.2348C0.100098 17.2365 0.100098 17.2382 0.100098 17.2398C0.100098 17.2415 0.100098 17.2431 0.100098 17.2448C0.100098 17.2464 0.100098 17.2481 0.100098 17.2497C0.100098 17.2514 0.100098 17.2531 0.100098 17.2547C0.100098 17.2564 0.100098 17.258 0.100098 17.2597C0.100098 17.2613 0.100098 17.263 0.100098 17.2646C0.100098 17.2663 0.100098 17.268 0.100098 17.2696C0.100098 17.2713 0.100098 17.2729 0.100098 17.2746C0.100098 17.2762 0.100098 17.2779 0.100098 17.2796C0.100098 17.2812 0.100098 17.2829 0.100098 17.2845C0.100098 17.2862 0.100098 17.2878 0.100098 17.2895C0.100098 17.2912 0.100098 17.2928 0.100098 17.2945C0.100098 17.2961 0.100098 17.2978 0.100098 17.2994C0.100098 17.3011 0.100098 17.3028 0.100098 17.3044C0.100098 17.3061 0.100098 17.3077 0.100098 17.3094C0.100098 17.3111 0.100098 17.3127 0.100098 17.3144C0.100098 17.316 0.100098 17.3177 0.100098 17.3194C0.100098 17.321 0.100098 17.3227 0.100098 17.3243C0.100098 17.326 0.100098 17.3277 0.100098 17.3293C0.100098 17.331 0.100098 17.3326 0.100098 17.3343C0.100098 17.336 0.100098 17.3376 0.100098 17.3393C0.100098 17.3409 0.100098 17.3426 0.100098 17.3443C0.100098 17.3459 0.100098 17.3476 0.100098 17.3492C0.100098 17.3509 0.100098 17.3526 0.100098 17.3542C0.100098 17.3559 0.100098 17.3576 0.100098 17.3592C0.100098 17.3609 0.100098 17.3625 0.100098 17.3642C0.100098 17.3659 0.100098 17.3675 0.100098 17.3692C0.100098 17.3709 0.100098 17.3725 0.100098 17.3742C0.100098 17.3758 0.100098 17.3775 0.100098 17.3792C0.100098 17.3808 0.100098 17.3825 0.100098 17.3842C0.100098 17.3858 0.100098 17.3875 0.100098 17.3892H1.1001ZM4.2001 11.8931L9.0001 11.8931L9.00009 10.8931L4.20009 10.8931L4.2001 11.8931ZM12.1001 14.9924C12.1001 14.9939 12.1001 14.9953 12.1001 14.9967C12.1001 14.9982 12.1001 14.9996 12.1001 15.0011C12.1001 15.0025 12.1001 15.0039 12.1001 15.0054C12.1001 15.0068 12.1001 15.0082 12.1001 15.0097C12.1001 15.0111 12.1001 15.0125 12.1001 15.014C12.1001 15.0154 12.1001 15.0168 12.1001 15.0183C12.1001 15.0197 12.1001 15.0212 12.1001 15.0226C12.1001 15.024 12.1001 15.0255 12.1001 15.0269C12.1001 15.0283 12.1001 15.0298 12.1001 15.0312C12.1001 15.0327 12.1001 15.0341 12.1001 15.0355C12.1001 15.037 12.1001 15.0384 12.1001 15.0399C12.1001 15.0413 12.1001 15.0427 12.1001 15.0442C12.1001 15.0456 12.1001 15.0471 12.1001 15.0485C12.1001 15.0499 12.1001 15.0514 12.1001 15.0528C12.1001 15.0543 12.1001 15.0557 12.1001 15.0572C12.1001 15.0586 12.1001 15.06 12.1001 15.0615C12.1001 15.0629 12.1001 15.0644 12.1001 15.0658C12.1001 15.0673 12.1001 15.0687 12.1001 15.0701C12.1001 15.0716 12.1001 15.073 12.1001 15.0745C12.1001 15.0759 12.1001 15.0774 12.1001 15.0788C12.1001 15.0803 12.1001 15.0817 12.1001 15.0832C12.1001 15.0846 12.1001 15.086 12.1001 15.0875C12.1001 15.0889 12.1001 15.0904 12.1001 15.0918C12.1001 15.0933 12.1001 15.0947 12.1001 15.0962C12.1001 15.0976 12.1001 15.0991 12.1001 15.1005C12.1001 15.102 12.1001 15.1034 12.1001 15.1049C12.1001 15.1063 12.1001 15.1078 12.1001 15.1092C12.1001 15.1107 12.1001 15.1121 12.1001 15.1136C12.1001 15.115 12.1001 15.1165 12.1001 15.1179C12.1001 15.1194 12.1001 15.1208 12.1001 15.1223C12.1001 15.1237 12.1001 15.1252 12.1001 15.1266C12.1001 15.1281 12.1001 15.1295 12.1001 15.131C12.1001 15.1324 12.1001 15.1339 12.1001 15.1353C12.1001 15.1368 12.1001 15.1382 12.1001 15.1397C12.1001 15.1411 12.1001 15.1426 12.1001 15.144C12.1001 15.1455 12.1001 15.147 12.1001 15.1484C12.1001 15.1499 12.1001 15.1513 12.1001 15.1528C12.1001 15.1542 12.1001 15.1557 12.1001 15.1571C12.1001 15.1586 12.1001 15.16 12.1001 15.1615C12.1001 15.163 12.1001 15.1644 12.1001 15.1659C12.1001 15.1673 12.1001 15.1688 12.1001 15.1702C12.1001 15.1717 12.1001 15.1732 12.1001 15.1746C12.1001 15.1761 12.1001 15.1775 12.1001 15.179C12.1001 15.1805 12.1001 15.1819 12.1001 15.1834C12.1001 15.1848 12.1001 15.1863 12.1001 15.1877C12.1001 15.1892 12.1001 15.1907 12.1001 15.1921C12.1001 15.1936 12.1001 15.195 12.1001 15.1965C12.1001 15.198 12.1001 15.1994 12.1001 15.2009C12.1001 15.2023 12.1001 15.2038 12.1001 15.2053C12.1001 15.2067 12.1001 15.2082 12.1001 15.2097C12.1001 15.2111 12.1001 15.2126 12.1001 15.214C12.1001 15.2155 12.1001 15.217 12.1001 15.2184C12.1001 15.2199 12.1001 15.2214 12.1001 15.2228C12.1001 15.2243 12.1001 15.2258 12.1001 15.2272C12.1001 15.2287 12.1001 15.2301 12.1001 15.2316C12.1001 15.2331 12.1001 15.2345 12.1001 15.236C12.1001 15.2375 12.1001 15.2389 12.1001 15.2404C12.1001 15.2419 12.1001 15.2433 12.1001 15.2448C12.1001 15.2463 12.1001 15.2477 12.1001 15.2492C12.1001 15.2507 12.1001 15.2521 12.1001 15.2536C12.1001 15.2551 12.1001 15.2565 12.1001 15.258C12.1001 15.2595 12.1001 15.261 12.1001 15.2624C12.1001 15.2639 12.1001 15.2654 12.1001 15.2668C12.1001 15.2683 12.1001 15.2698 12.1001 15.2712C12.1001 15.2727 12.1001 15.2742 12.1001 15.2756C12.1001 15.2771 12.1001 15.2786 12.1001 15.2801C12.1001 15.2815 12.1001 15.283 12.1001 15.2845C12.1001 15.2859 12.1001 15.2874 12.1001 15.2889C12.1001 15.2904 12.1001 15.2918 12.1001 15.2933C12.1001 15.2948 12.1001 15.2963 12.1001 15.2977C12.1001 15.2992 12.1001 15.3007 12.1001 15.3021C12.1001 15.3036 12.1001 15.3051 12.1001 15.3066C12.1001 15.308 12.1001 15.3095 12.1001 15.311C12.1001 15.3125 12.1001 15.3139 12.1001 15.3154C12.1001 15.3169 12.1001 15.3184 12.1001 15.3198C12.1001 15.3213 12.1001 15.3228 12.1001 15.3243C12.1001 15.3258 12.1001 15.3272 12.1001 15.3287C12.1001 15.3302 12.1001 15.3317 12.1001 15.3331C12.1001 15.3346 12.1001 15.3361 12.1001 15.3376C12.1001 15.339 12.1001 15.3405 12.1001 15.342C12.1001 15.3435 12.1001 15.345 12.1001 15.3464C12.1001 15.3479 12.1001 15.3494 12.1001 15.3509C12.1001 15.3524 12.1001 15.3538 12.1001 15.3553C12.1001 15.3568 12.1001 15.3583 12.1001 15.3598C12.1001 15.3612 12.1001 15.3627 12.1001 15.3642C12.1001 15.3657 12.1001 15.3672 12.1001 15.3687C12.1001 15.3701 12.1001 15.3716 12.1001 15.3731C12.1001 15.3746 12.1001 15.3761 12.1001 15.3775C12.1001 15.379 12.1001 15.3805 12.1001 15.382C12.1001 15.3835 12.1001 15.385 12.1001 15.3864C12.1001 15.3879 12.1001 15.3894 12.1001 15.3909C12.1001 15.3924 12.1001 15.3939 12.1001 15.3954C12.1001 15.3968 12.1001 15.3983 12.1001 15.3998C12.1001 15.4013 12.1001 15.4028 12.1001 15.4043C12.1001 15.4058 12.1001 15.4072 12.1001 15.4087C12.1001 15.4102 12.1001 15.4117 12.1001 15.4132C12.1001 15.4147 12.1001 15.4162 12.1001 15.4177C12.1001 15.4191 12.1001 15.4206 12.1001 15.4221C12.1001 15.4236 12.1001 15.4251 12.1001 15.4266C12.1001 15.4281 12.1001 15.4296 12.1001 15.4311C12.1001 15.4325 12.1001 15.434 12.1001 15.4355C12.1001 15.437 12.1001 15.4385 12.1001 15.44C12.1001 15.4415 12.1001 15.443 12.1001 15.4445C12.1001 15.446 12.1001 15.4474 12.1001 15.4489C12.1001 15.4504 12.1001 15.4519 12.1001 15.4534C12.1001 15.4549 12.1001 15.4564 12.1001 15.4579C12.1001 15.4594 12.1001 15.4609 12.1001 15.4624C12.1001 15.4639 12.1001 15.4654 12.1001 15.4669C12.1001 15.4683 12.1001 15.4698 12.1001 15.4713C12.1001 15.4728 12.1001 15.4743 12.1001 15.4758C12.1001 15.4773 12.1001 15.4788 12.1001 15.4803C12.1001 15.4818 12.1001 15.4833 12.1001 15.4848C12.1001 15.4863 12.1001 15.4878 12.1001 15.4893C12.1001 15.4908 12.1001 15.4923 12.1001 15.4938C12.1001 15.4953 12.1001 15.4968 12.1001 15.4983C12.1001 15.4998 12.1001 15.5013 12.1001 15.5028C12.1001 15.5042 12.1001 15.5057 12.1001 15.5072C12.1001 15.5087 12.1001 15.5102 12.1001 15.5117C12.1001 15.5132 12.1001 15.5147 12.1001 15.5162C12.1001 15.5177 12.1001 15.5192 12.1001 15.5207C12.1001 15.5222 12.1001 15.5237 12.1001 15.5252C12.1001 15.5267 12.1001 15.5282 12.1001 15.5297C12.1001 15.5312 12.1001 15.5327 12.1001 15.5342C12.1001 15.5357 12.1001 15.5373 12.1001 15.5388C12.1001 15.5403 12.1001 15.5418 12.1001 15.5433C12.1001 15.5448 12.1001 15.5463 12.1001 15.5478C12.1001 15.5493 12.1001 15.5508 12.1001 15.5523C12.1001 15.5538 12.1001 15.5553 12.1001 15.5568C12.1001 15.5583 12.1001 15.5598 12.1001 15.5613C12.1001 15.5628 12.1001 15.5643 12.1001 15.5658C12.1001 15.5673 12.1001 15.5688 12.1001 15.5703C12.1001 15.5718 12.1001 15.5733 12.1001 15.5749C12.1001 15.5764 12.1001 15.5779 12.1001 15.5794C12.1001 15.5809 12.1001 15.5824 12.1001 15.5839C12.1001 15.5854 12.1001 15.5869 12.1001 15.5884C12.1001 15.5899 12.1001 15.5914 12.1001 15.5929C12.1001 15.5944 12.1001 15.596 12.1001 15.5975C12.1001 15.599 12.1001 15.6005 12.1001 15.602C12.1001 15.6035 12.1001 15.605 12.1001 15.6065C12.1001 15.608 12.1001 15.6095 12.1001 15.6111C12.1001 15.6126 12.1001 15.6141 12.1001 15.6156C12.1001 15.6171 12.1001 15.6186 12.1001 15.6201C12.1001 15.6216 12.1001 15.6231 12.1001 15.6247C12.1001 15.6262 12.1001 15.6277 12.1001 15.6292C12.1001 15.6307 12.1001 15.6322 12.1001 15.6337C12.1001 15.6352 12.1001 15.6368 12.1001 15.6383C12.1001 15.6398 12.1001 15.6413 12.1001 15.6428C12.1001 15.6443 12.1001 15.6458 12.1001 15.6473C12.1001 15.6489 12.1001 15.6504 12.1001 15.6519C12.1001 15.6534 12.1001 15.6549 12.1001 15.6564C12.1001 15.658 12.1001 15.6595 12.1001 15.661C12.1001 15.6625 12.1001 15.664 12.1001 15.6655C12.1001 15.667 12.1001 15.6686 12.1001 15.6701C12.1001 15.6716 12.1001 15.6731 12.1001 15.6746C12.1001 15.6762 12.1001 15.6777 12.1001 15.6792C12.1001 15.6807 12.1001 15.6822 12.1001 15.6837C12.1001 15.6853 12.1001 15.6868 12.1001 15.6883C12.1001 15.6898 12.1001 15.6913 12.1001 15.6929C12.1001 15.6944 12.1001 15.6959 12.1001 15.6974C12.1001 15.6989 12.1001 15.7005 12.1001 15.702C12.1001 15.7035 12.1001 15.705 12.1001 15.7065C12.1001 15.7081 12.1001 15.7096 12.1001 15.7111C12.1001 15.7126 12.1001 15.7141 12.1001 15.7157C12.1001 15.7172 12.1001 15.7187 12.1001 15.7202C12.1001 15.7218 12.1001 15.7233 12.1001 15.7248C12.1001 15.7263 12.1001 15.7278 12.1001 15.7294C12.1001 15.7309 12.1001 15.7324 12.1001 15.7339C12.1001 15.7355 12.1001 15.737 12.1001 15.7385C12.1001 15.74 12.1001 15.7416 12.1001 15.7431C12.1001 15.7446 12.1001 15.7461 12.1001 15.7477C12.1001 15.7492 12.1001 15.7507 12.1001 15.7522C12.1001 15.7538 12.1001 15.7553 12.1001 15.7568C12.1001 15.7583 12.1001 15.7599 12.1001 15.7614C12.1001 15.7629 12.1001 15.7645 12.1001 15.766C12.1001 15.7675 12.1001 15.769 12.1001 15.7706C12.1001 15.7721 12.1001 15.7736 12.1001 15.7751C12.1001 15.7767 12.1001 15.7782 12.1001 15.7797C12.1001 15.7813 12.1001 15.7828 12.1001 15.7843C12.1001 15.7858 12.1001 15.7874 12.1001 15.7889C12.1001 15.7904 12.1001 15.792 12.1001 15.7935C12.1001 15.795 12.1001 15.7966 12.1001 15.7981C12.1001 15.7996 12.1001 15.8012 12.1001 15.8027C12.1001 15.8042 12.1001 15.8057 12.1001 15.8073C12.1001 15.8088 12.1001 15.8103 12.1001 15.8119C12.1001 15.8134 12.1001 15.8149 12.1001 15.8165C12.1001 15.818 12.1001 15.8195 12.1001 15.8211C12.1001 15.8226 12.1001 15.8241 12.1001 15.8257C12.1001 15.8272 12.1001 15.8287 12.1001 15.8303C12.1001 15.8318 12.1001 15.8333 12.1001 15.8349C12.1001 15.8364 12.1001 15.8379 12.1001 15.8395C12.1001 15.841 12.1001 15.8426 12.1001 15.8441C12.1001 15.8456 12.1001 15.8472 12.1001 15.8487C12.1001 15.8502 12.1001 15.8518 12.1001 15.8533C12.1001 15.8548 12.1001 15.8564 12.1001 15.8579C12.1001 15.8595 12.1001 15.861 12.1001 15.8625C12.1001 15.8641 12.1001 15.8656 12.1001 15.8671C12.1001 15.8687 12.1001 15.8702 12.1001 15.8718C12.1001 15.8733 12.1001 15.8748 12.1001 15.8764C12.1001 15.8779 12.1001 15.8795 12.1001 15.881C12.1001 15.8825 12.1001 15.8841 12.1001 15.8856C12.1001 15.8872 12.1001 15.8887 12.1001 15.8902C12.1001 15.8918 12.1001 15.8933 12.1001 15.8949C12.1001 15.8964 12.1001 15.8979 12.1001 15.8995C12.1001 15.901 12.1001 15.9026 12.1001 15.9041C12.1001 15.9056 12.1001 15.9072 12.1001 15.9087C12.1001 15.9103 12.1001 15.9118 12.1001 15.9134C12.1001 15.9149 12.1001 15.9164 12.1001 15.918C12.1001 15.9195 12.1001 15.9211 12.1001 15.9226C12.1001 15.9242 12.1001 15.9257 12.1001 15.9273C12.1001 15.9288 12.1001 15.9303 12.1001 15.9319C12.1001 15.9334 12.1001 15.935 12.1001 15.9365C12.1001 15.9381 12.1001 15.9396 12.1001 15.9412C12.1001 15.9427 12.1001 15.9442 12.1001 15.9458C12.1001 15.9473 12.1001 15.9489 12.1001 15.9504C12.1001 15.952 12.1001 15.9535 12.1001 15.9551C12.1001 15.9566 12.1001 15.9582 12.1001 15.9597C12.1001 15.9613 12.1001 15.9628 12.1001 15.9644C12.1001 15.9659 12.1001 15.9675 12.1001 15.969C12.1001 15.9706 12.1001 15.9721 12.1001 15.9737C12.1001 15.9752 12.1001 15.9768 12.1001 15.9783C12.1001 15.9798 12.1001 15.9814 12.1001 15.9829C12.1001 15.9845 12.1001 15.986 12.1001 15.9876C12.1001 15.9892 12.1001 15.9907 12.1001 15.9923C12.1001 15.9938 12.1001 15.9954 12.1001 15.9969C12.1001 15.9985 12.1001 16 12.1001 16.0016C12.1001 16.0031 12.1001 16.0047 12.1001 16.0062C12.1001 16.0078 12.1001 16.0093 12.1001 16.0109C12.1001 16.0124 12.1001 16.014 12.1001 16.0155C12.1001 16.0171 12.1001 16.0186 12.1001 16.0202C12.1001 16.0217 12.1001 16.0233 12.1001 16.0249C12.1001 16.0264 12.1001 16.028 12.1001 16.0295C12.1001 16.0311 12.1001 16.0326 12.1001 16.0342C12.1001 16.0357 12.1001 16.0373 12.1001 16.0388C12.1001 16.0404 12.1001 16.042 12.1001 16.0435C12.1001 16.0451 12.1001 16.0466 12.1001 16.0482C12.1001 16.0497 12.1001 16.0513 12.1001 16.0529C12.1001 16.0544 12.1001 16.056 12.1001 16.0575C12.1001 16.0591 12.1001 16.0606 12.1001 16.0622C12.1001 16.0638 12.1001 16.0653 12.1001 16.0669C12.1001 16.0684 12.1001 16.07 12.1001 16.0716C12.1001 16.0731 12.1001 16.0747 12.1001 16.0762C12.1001 16.0778 12.1001 16.0793 12.1001 16.0809C12.1001 16.0825 12.1001 16.084 12.1001 16.0856C12.1001 16.0871 12.1001 16.0887 12.1001 16.0903C12.1001 16.0918 12.1001 16.0934 12.1001 16.0949C12.1001 16.0965 12.1001 16.0981 12.1001 16.0996C12.1001 16.1012 12.1001 16.1028 12.1001 16.1043C12.1001 16.1059 12.1001 16.1074 12.1001 16.109C12.1001 16.1106 12.1001 16.1121 12.1001 16.1137C12.1001 16.1153 12.1001 16.1168 12.1001 16.1184C12.1001 16.1199 12.1001 16.1215 12.1001 16.1231C12.1001 16.1246 12.1001 16.1262 12.1001 16.1278C12.1001 16.1293 12.1001 16.1309 12.1001 16.1325C12.1001 16.134 12.1001 16.1356 12.1001 16.1372C12.1001 16.1387 12.1001 16.1403 12.1001 16.1418C12.1001 16.1434 12.1001 16.145 12.1001 16.1465C12.1001 16.1481 12.1001 16.1497 12.1001 16.1512C12.1001 16.1528 12.1001 16.1544 12.1001 16.1559C12.1001 16.1575 12.1001 16.1591 12.1001 16.1606C12.1001 16.1622 12.1001 16.1638 12.1001 16.1654C12.1001 16.1669 12.1001 16.1685 12.1001 16.1701C12.1001 16.1716 12.1001 16.1732 12.1001 16.1748C12.1001 16.1763 12.1001 16.1779 12.1001 16.1795C12.1001 16.181 12.1001 16.1826 12.1001 16.1842C12.1001 16.1857 12.1001 16.1873 12.1001 16.1889C12.1001 16.1905 12.1001 16.192 12.1001 16.1936C12.1001 16.1952 12.1001 16.1967 12.1001 16.1983C12.1001 16.1999 12.1001 16.2015 12.1001 16.203C12.1001 16.2046 12.1001 16.2062 12.1001 16.2077C12.1001 16.2093 12.1001 16.2109 12.1001 16.2125C12.1001 16.214 12.1001 16.2156 12.1001 16.2172C12.1001 16.2187 12.1001 16.2203 12.1001 16.2219C12.1001 16.2235 12.1001 16.225 12.1001 16.2266C12.1001 16.2282 12.1001 16.2298 12.1001 16.2313C12.1001 16.2329 12.1001 16.2345 12.1001 16.2361C12.1001 16.2376 12.1001 16.2392 12.1001 16.2408C12.1001 16.2424 12.1001 16.2439 12.1001 16.2455C12.1001 16.2471 12.1001 16.2487 12.1001 16.2502C12.1001 16.2518 12.1001 16.2534 12.1001 16.255C12.1001 16.2565 12.1001 16.2581 12.1001 16.2597C12.1001 16.2613 12.1001 16.2628 12.1001 16.2644C12.1001 16.266 12.1001 16.2676 12.1001 16.2692C12.1001 16.2707 12.1001 16.2723 12.1001 16.2739C12.1001 16.2755 12.1001 16.277 12.1001 16.2786C12.1001 16.2802 12.1001 16.2818 12.1001 16.2834C12.1001 16.2849 12.1001 16.2865 12.1001 16.2881C12.1001 16.2897 12.1001 16.2913 12.1001 16.2928C12.1001 16.2944 12.1001 16.296 12.1001 16.2976C12.1001 16.2992 12.1001 16.3007 12.1001 16.3023C12.1001 16.3039 12.1001 16.3055 12.1001 16.3071C12.1001 16.3086 12.1001 16.3102 12.1001 16.3118C12.1001 16.3134 12.1001 16.315 12.1001 16.3165C12.1001 16.3181 12.1001 16.3197 12.1001 16.3213C12.1001 16.3229 12.1001 16.3245 12.1001 16.326C12.1001 16.3276 12.1001 16.3292 12.1001 16.3308C12.1001 16.3324 12.1001 16.334 12.1001 16.3355C12.1001 16.3371 12.1001 16.3387 12.1001 16.3403C12.1001 16.3419 12.1001 16.3435 12.1001 16.345C12.1001 16.3466 12.1001 16.3482 12.1001 16.3498C12.1001 16.3514 12.1001 16.353 12.1001 16.3546C12.1001 16.3561 12.1001 16.3577 12.1001 16.3593C12.1001 16.3609 12.1001 16.3625 12.1001 16.3641C12.1001 16.3657 12.1001 16.3672 12.1001 16.3688C12.1001 16.3704 12.1001 16.372 12.1001 16.3736C12.1001 16.3752 12.1001 16.3768 12.1001 16.3783C12.1001 16.3799 12.1001 16.3815 12.1001 16.3831C12.1001 16.3847 12.1001 16.3863 12.1001 16.3879C12.1001 16.3895 12.1001 16.3911 12.1001 16.3926C12.1001 16.3942 12.1001 16.3958 12.1001 16.3974C12.1001 16.399 12.1001 16.4006 12.1001 16.4022C12.1001 16.4038 12.1001 16.4054 12.1001 16.4069C12.1001 16.4085 12.1001 16.4101 12.1001 16.4117C12.1001 16.4133 12.1001 16.4149 12.1001 16.4165C12.1001 16.4181 12.1001 16.4197 12.1001 16.4213C12.1001 16.4229 12.1001 16.4244 12.1001 16.426C12.1001 16.4276 12.1001 16.4292 12.1001 16.4308C12.1001 16.4324 12.1001 16.434 12.1001 16.4356C12.1001 16.4372 12.1001 16.4388 12.1001 16.4404C12.1001 16.442 12.1001 16.4436 12.1001 16.4451C12.1001 16.4467 12.1001 16.4483 12.1001 16.4499C12.1001 16.4515 12.1001 16.4531 12.1001 16.4547C12.1001 16.4563 12.1001 16.4579 12.1001 16.4595C12.1001 16.4611 12.1001 16.4627 12.1001 16.4643C12.1001 16.4659 12.1001 16.4675 12.1001 16.4691C12.1001 16.4707 12.1001 16.4723 12.1001 16.4739C12.1001 16.4754 12.1001 16.477 12.1001 16.4786C12.1001 16.4802 12.1001 16.4818 12.1001 16.4834C12.1001 16.485 12.1001 16.4866 12.1001 16.4882C12.1001 16.4898 12.1001 16.4914 12.1001 16.493C12.1001 16.4946 12.1001 16.4962 12.1001 16.4978C12.1001 16.4994 12.1001 16.501 12.1001 16.5026C12.1001 16.5042 12.1001 16.5058 12.1001 16.5074C12.1001 16.509 12.1001 16.5106 12.1001 16.5122C12.1001 16.5138 12.1001 16.5154 12.1001 16.517C12.1001 16.5186 12.1001 16.5202 12.1001 16.5218C12.1001 16.5234 12.1001 16.525 12.1001 16.5266C12.1001 16.5282 12.1001 16.5298 12.1001 16.5314C12.1001 16.533 12.1001 16.5346 12.1001 16.5362C12.1001 16.5378 12.1001 16.5394 12.1001 16.541C12.1001 16.5426 12.1001 16.5442 12.1001 16.5458C12.1001 16.5474 12.1001 16.549 12.1001 16.5506C12.1001 16.5522 12.1001 16.5538 12.1001 16.5554C12.1001 16.557 12.1001 16.5586 12.1001 16.5602C12.1001 16.5618 12.1001 16.5634 12.1001 16.565C12.1001 16.5666 12.1001 16.5682 12.1001 16.5698C12.1001 16.5715 12.1001 16.5731 12.1001 16.5747C12.1001 16.5763 12.1001 16.5779 12.1001 16.5795C12.1001 16.5811 12.1001 16.5827 12.1001 16.5843C12.1001 16.5859 12.1001 16.5875 12.1001 16.5891C12.1001 16.5907 12.1001 16.5923 12.1001 16.5939C12.1001 16.5955 12.1001 16.5971 12.1001 16.5987C12.1001 16.6004 12.1001 16.602 12.1001 16.6036C12.1001 16.6052 12.1001 16.6068 12.1001 16.6084C12.1001 16.61 12.1001 16.6116 12.1001 16.6132C12.1001 16.6148 12.1001 16.6164 12.1001 16.618C12.1001 16.6196 12.1001 16.6212 12.1001 16.6229C12.1001 16.6245 12.1001 16.6261 12.1001 16.6277C12.1001 16.6293 12.1001 16.6309 12.1001 16.6325C12.1001 16.6341 12.1001 16.6357 12.1001 16.6373C12.1001 16.6389 12.1001 16.6406 12.1001 16.6422C12.1001 16.6438 12.1001 16.6454 12.1001 16.647C12.1001 16.6486 12.1001 16.6502 12.1001 16.6518C12.1001 16.6534 12.1001 16.6551 12.1001 16.6567C12.1001 16.6583 12.1001 16.6599 12.1001 16.6615C12.1001 16.6631 12.1001 16.6647 12.1001 16.6663C12.1001 16.6679 12.1001 16.6696 12.1001 16.6712C12.1001 16.6728 12.1001 16.6744 12.1001 16.676C12.1001 16.6776 12.1001 16.6792 12.1001 16.6808C12.1001 16.6825 12.1001 16.6841 12.1001 16.6857C12.1001 16.6873 12.1001 16.6889 12.1001 16.6905C12.1001 16.6921 12.1001 16.6938 12.1001 16.6954C12.1001 16.697 12.1001 16.6986 12.1001 16.7002C12.1001 16.7018 12.1001 16.7034 12.1001 16.7051C12.1001 16.7067 12.1001 16.7083 12.1001 16.7099C12.1001 16.7115 12.1001 16.7131 12.1001 16.7148C12.1001 16.7164 12.1001 16.718 12.1001 16.7196C12.1001 16.7212 12.1001 16.7228 12.1001 16.7245C12.1001 16.7261 12.1001 16.7277 12.1001 16.7293C12.1001 16.7309 12.1001 16.7325 12.1001 16.7342C12.1001 16.7358 12.1001 16.7374 12.1001 16.739C12.1001 16.7406 12.1001 16.7422 12.1001 16.7439C12.1001 16.7455 12.1001 16.7471 12.1001 16.7487C12.1001 16.7503 12.1001 16.752 12.1001 16.7536C12.1001 16.7552 12.1001 16.7568 12.1001 16.7584C12.1001 16.76 12.1001 16.7617 12.1001 16.7633C12.1001 16.7649 12.1001 16.7665 12.1001 16.7681C12.1001 16.7698 12.1001 16.7714 12.1001 16.773C12.1001 16.7746 12.1001 16.7763 12.1001 16.7779C12.1001 16.7795 12.1001 16.7811 12.1001 16.7827C12.1001 16.7844 12.1001 16.786 12.1001 16.7876C12.1001 16.7892 12.1001 16.7908 12.1001 16.7925C12.1001 16.7941 12.1001 16.7957 12.1001 16.7973C12.1001 16.799 12.1001 16.8006 12.1001 16.8022C12.1001 16.8038 12.1001 16.8054 12.1001 16.8071C12.1001 16.8087 12.1001 16.8103 12.1001 16.8119C12.1001 16.8136 12.1001 16.8152 12.1001 16.8168C12.1001 16.8184 12.1001 16.8201 12.1001 16.8217C12.1001 16.8233 12.1001 16.8249 12.1001 16.8266C12.1001 16.8282 12.1001 16.8298 12.1001 16.8314C12.1001 16.8331 12.1001 16.8347 12.1001 16.8363C12.1001 16.8379 12.1001 16.8396 12.1001 16.8412C12.1001 16.8428 12.1001 16.8444 12.1001 16.8461C12.1001 16.8477 12.1001 16.8493 12.1001 16.8509C12.1001 16.8526 12.1001 16.8542 12.1001 16.8558C12.1001 16.8574 12.1001 16.8591 12.1001 16.8607C12.1001 16.8623 12.1001 16.864 12.1001 16.8656C12.1001 16.8672 12.1001 16.8688 12.1001 16.8705C12.1001 16.8721 12.1001 16.8737 12.1001 16.8754C12.1001 16.877 12.1001 16.8786 12.1001 16.8802C12.1001 16.8819 12.1001 16.8835 12.1001 16.8851C12.1001 16.8868 12.1001 16.8884 12.1001 16.89C12.1001 16.8916 12.1001 16.8933 12.1001 16.8949C12.1001 16.8965 12.1001 16.8982 12.1001 16.8998C12.1001 16.9014 12.1001 16.9031 12.1001 16.9047C12.1001 16.9063 12.1001 16.9079 12.1001 16.9096C12.1001 16.9112 12.1001 16.9128 12.1001 16.9145C12.1001 16.9161 12.1001 16.9177 12.1001 16.9194C12.1001 16.921 12.1001 16.9226 12.1001 16.9243C12.1001 16.9259 12.1001 16.9275 12.1001 16.9292C12.1001 16.9308 12.1001 16.9324 12.1001 16.9341C12.1001 16.9357 12.1001 16.9373 12.1001 16.939C12.1001 16.9406 12.1001 16.9422 12.1001 16.9439C12.1001 16.9455 12.1001 16.9471 12.1001 16.9488C12.1001 16.9504 12.1001 16.952 12.1001 16.9537C12.1001 16.9553 12.1001 16.9569 12.1001 16.9586C12.1001 16.9602 12.1001 16.9618 12.1001 16.9635C12.1001 16.9651 12.1001 16.9667 12.1001 16.9684C12.1001 16.97 12.1001 16.9716 12.1001 16.9733C12.1001 16.9749 12.1001 16.9766 12.1001 16.9782C12.1001 16.9798 12.1001 16.9815 12.1001 16.9831C12.1001 16.9847 12.1001 16.9864 12.1001 16.988C12.1001 16.9896 12.1001 16.9913 12.1001 16.9929C12.1001 16.9946 12.1001 16.9962 12.1001 16.9978C12.1001 16.9995 12.1001 17.0011 12.1001 17.0027C12.1001 17.0044 12.1001 17.006 12.1001 17.0077C12.1001 17.0093 12.1001 17.0109 12.1001 17.0126C12.1001 17.0142 12.1001 17.0159 12.1001 17.0175C12.1001 17.0191 12.1001 17.0208 12.1001 17.0224C12.1001 17.024 12.1001 17.0257 12.1001 17.0273C12.1001 17.029 12.1001 17.0306 12.1001 17.0322C12.1001 17.0339 12.1001 17.0355 12.1001 17.0372C12.1001 17.0388 12.1001 17.0404 12.1001 17.0421C12.1001 17.0437 12.1001 17.0454 12.1001 17.047C12.1001 17.0487 12.1001 17.0503 12.1001 17.0519C12.1001 17.0536 12.1001 17.0552 12.1001 17.0569C12.1001 17.0585 12.1001 17.0601 12.1001 17.0618C12.1001 17.0634 12.1001 17.0651 12.1001 17.0667C12.1001 17.0684 12.1001 17.07 12.1001 17.0716C12.1001 17.0733 12.1001 17.0749 12.1001 17.0766C12.1001 17.0782 12.1001 17.0799 12.1001 17.0815C12.1001 17.0831 12.1001 17.0848 12.1001 17.0864C12.1001 17.0881 12.1001 17.0897 12.1001 17.0914C12.1001 17.093 12.1001 17.0947 12.1001 17.0963C12.1001 17.0979 12.1001 17.0996 12.1001 17.1012C12.1001 17.1029 12.1001 17.1045 12.1001 17.1062C12.1001 17.1078 12.1001 17.1095 12.1001 17.1111C12.1001 17.1127 12.1001 17.1144 12.1001 17.116C12.1001 17.1177 12.1001 17.1193 12.1001 17.121C12.1001 17.1226 12.1001 17.1243 12.1001 17.1259C12.1001 17.1276 12.1001 17.1292 12.1001 17.1309C12.1001 17.1325 12.1001 17.1342 12.1001 17.1358C12.1001 17.1374 12.1001 17.1391 12.1001 17.1407C12.1001 17.1424 12.1001 17.144 12.1001 17.1457C12.1001 17.1473 12.1001 17.149 12.1001 17.1506C12.1001 17.1523 12.1001 17.1539 12.1001 17.1556C12.1001 17.1572 12.1001 17.1589 12.1001 17.1605C12.1001 17.1622 12.1001 17.1638 12.1001 17.1655C12.1001 17.1671 12.1001 17.1688 12.1001 17.1704C12.1001 17.1721 12.1001 17.1737 12.1001 17.1754C12.1001 17.177 12.1001 17.1787 12.1001 17.1803C12.1001 17.182 12.1001 17.1836 12.1001 17.1853C12.1001 17.1869 12.1001 17.1886 12.1001 17.1902C12.1001 17.1919 12.1001 17.1935 12.1001 17.1952C12.1001 17.1968 12.1001 17.1985 12.1001 17.2001C12.1001 17.2018 12.1001 17.2034 12.1001 17.2051C12.1001 17.2067 12.1001 17.2084 12.1001 17.21C12.1001 17.2117 12.1001 17.2134 12.1001 17.215C12.1001 17.2167 12.1001 17.2183 12.1001 17.22C12.1001 17.2216 12.1001 17.2233 12.1001 17.2249C12.1001 17.2266 12.1001 17.2282 12.1001 17.2299C12.1001 17.2315 12.1001 17.2332 12.1001 17.2348C12.1001 17.2365 12.1001 17.2382 12.1001 17.2398C12.1001 17.2415 12.1001 17.2431 12.1001 17.2448C12.1001 17.2464 12.1001 17.2481 12.1001 17.2497C12.1001 17.2514 12.1001 17.253 12.1001 17.2547C12.1001 17.2564 12.1001 17.258 12.1001 17.2597C12.1001 17.2613 12.1001 17.263 12.1001 17.2646C12.1001 17.2663 12.1001 17.2679 12.1001 17.2696C12.1001 17.2713 12.1001 17.2729 12.1001 17.2746C12.1001 17.2762 12.1001 17.2779 12.1001 17.2795C12.1001 17.2812 12.1001 17.2829 12.1001 17.2845C12.1001 17.2862 12.1001 17.2878 12.1001 17.2895C12.1001 17.2911 12.1001 17.2928 12.1001 17.2945C12.1001 17.2961 12.1001 17.2978 12.1001 17.2994C12.1001 17.3011 12.1001 17.3028 12.1001 17.3044C12.1001 17.3061 12.1001 17.3077 12.1001 17.3094C12.1001 17.311 12.1001 17.3127 12.1001 17.3144C12.1001 17.316 12.1001 17.3177 12.1001 17.3193C12.1001 17.321 12.1001 17.3227 12.1001 17.3243C12.1001 17.326 12.1001 17.3276 12.1001 17.3293C12.1001 17.331 12.1001 17.3326 12.1001 17.3343C12.1001 17.3359 12.1001 17.3376 12.1001 17.3393C12.1001 17.3409 12.1001 17.3426 12.1001 17.3443C12.1001 17.3459 12.1001 17.3476 12.1001 17.3492C12.1001 17.3509 12.1001 17.3526 12.1001 17.3542C12.1001 17.3559 12.1001 17.3575 12.1001 17.3592C12.1001 17.3609 12.1001 17.3625 12.1001 17.3642C12.1001 17.3659 12.1001 17.3675 12.1001 17.3692C12.1001 17.3708 12.1001 17.3725 12.1001 17.3742C12.1001 17.3758 12.1001 17.3775 12.1001 17.3792C12.1001 17.3808 12.1001 17.3825 12.1001 17.3842C12.1001 17.3858 12.1001 17.3875 12.1001 17.3891H13.1001C13.1001 17.3875 13.1001 17.3858 13.1001 17.3842C13.1001 17.3825 13.1001 17.3808 13.1001 17.3792C13.1001 17.3775 13.1001 17.3758 13.1001 17.3742C13.1001 17.3725 13.1001 17.3708 13.1001 17.3692C13.1001 17.3675 13.1001 17.3659 13.1001 17.3642C13.1001 17.3625 13.1001 17.3609 13.1001 17.3592C13.1001 17.3575 13.1001 17.3559 13.1001 17.3542C13.1001 17.3526 13.1001 17.3509 13.1001 17.3492C13.1001 17.3476 13.1001 17.3459 13.1001 17.3443C13.1001 17.3426 13.1001 17.3409 13.1001 17.3393C13.1001 17.3376 13.1001 17.3359 13.1001 17.3343C13.1001 17.3326 13.1001 17.331 13.1001 17.3293C13.1001 17.3276 13.1001 17.326 13.1001 17.3243C13.1001 17.3227 13.1001 17.321 13.1001 17.3193C13.1001 17.3177 13.1001 17.316 13.1001 17.3144C13.1001 17.3127 13.1001 17.311 13.1001 17.3094C13.1001 17.3077 13.1001 17.3061 13.1001 17.3044C13.1001 17.3028 13.1001 17.3011 13.1001 17.2994C13.1001 17.2978 13.1001 17.2961 13.1001 17.2945C13.1001 17.2928 13.1001 17.2911 13.1001 17.2895C13.1001 17.2878 13.1001 17.2862 13.1001 17.2845C13.1001 17.2829 13.1001 17.2812 13.1001 17.2795C13.1001 17.2779 13.1001 17.2762 13.1001 17.2746C13.1001 17.2729 13.1001 17.2713 13.1001 17.2696C13.1001 17.2679 13.1001 17.2663 13.1001 17.2646C13.1001 17.263 13.1001 17.2613 13.1001 17.2597C13.1001 17.258 13.1001 17.2564 13.1001 17.2547C13.1001 17.253 13.1001 17.2514 13.1001 17.2497C13.1001 17.2481 13.1001 17.2464 13.1001 17.2448C13.1001 17.2431 13.1001 17.2415 13.1001 17.2398C13.1001 17.2382 13.1001 17.2365 13.1001 17.2348C13.1001 17.2332 13.1001 17.2315 13.1001 17.2299C13.1001 17.2282 13.1001 17.2266 13.1001 17.2249C13.1001 17.2233 13.1001 17.2216 13.1001 17.22C13.1001 17.2183 13.1001 17.2167 13.1001 17.215C13.1001 17.2134 13.1001 17.2117 13.1001 17.21C13.1001 17.2084 13.1001 17.2067 13.1001 17.2051C13.1001 17.2034 13.1001 17.2018 13.1001 17.2001C13.1001 17.1985 13.1001 17.1968 13.1001 17.1952C13.1001 17.1935 13.1001 17.1919 13.1001 17.1902C13.1001 17.1886 13.1001 17.1869 13.1001 17.1853C13.1001 17.1836 13.1001 17.182 13.1001 17.1803C13.1001 17.1787 13.1001 17.177 13.1001 17.1754C13.1001 17.1737 13.1001 17.1721 13.1001 17.1704C13.1001 17.1688 13.1001 17.1671 13.1001 17.1655C13.1001 17.1638 13.1001 17.1622 13.1001 17.1605C13.1001 17.1589 13.1001 17.1572 13.1001 17.1556C13.1001 17.1539 13.1001 17.1523 13.1001 17.1506C13.1001 17.149 13.1001 17.1473 13.1001 17.1457C13.1001 17.144 13.1001 17.1424 13.1001 17.1407C13.1001 17.1391 13.1001 17.1374 13.1001 17.1358C13.1001 17.1342 13.1001 17.1325 13.1001 17.1309C13.1001 17.1292 13.1001 17.1276 13.1001 17.1259C13.1001 17.1243 13.1001 17.1226 13.1001 17.121C13.1001 17.1193 13.1001 17.1177 13.1001 17.116C13.1001 17.1144 13.1001 17.1127 13.1001 17.1111C13.1001 17.1095 13.1001 17.1078 13.1001 17.1062C13.1001 17.1045 13.1001 17.1029 13.1001 17.1012C13.1001 17.0996 13.1001 17.0979 13.1001 17.0963C13.1001 17.0947 13.1001 17.093 13.1001 17.0914C13.1001 17.0897 13.1001 17.0881 13.1001 17.0864C13.1001 17.0848 13.1001 17.0831 13.1001 17.0815C13.1001 17.0799 13.1001 17.0782 13.1001 17.0766C13.1001 17.0749 13.1001 17.0733 13.1001 17.0716C13.1001 17.07 13.1001 17.0684 13.1001 17.0667C13.1001 17.0651 13.1001 17.0634 13.1001 17.0618C13.1001 17.0601 13.1001 17.0585 13.1001 17.0569C13.1001 17.0552 13.1001 17.0536 13.1001 17.0519C13.1001 17.0503 13.1001 17.0487 13.1001 17.047C13.1001 17.0454 13.1001 17.0437 13.1001 17.0421C13.1001 17.0404 13.1001 17.0388 13.1001 17.0372C13.1001 17.0355 13.1001 17.0339 13.1001 17.0322C13.1001 17.0306 13.1001 17.029 13.1001 17.0273C13.1001 17.0257 13.1001 17.024 13.1001 17.0224C13.1001 17.0208 13.1001 17.0191 13.1001 17.0175C13.1001 17.0159 13.1001 17.0142 13.1001 17.0126C13.1001 17.0109 13.1001 17.0093 13.1001 17.0077C13.1001 17.006 13.1001 17.0044 13.1001 17.0027C13.1001 17.0011 13.1001 16.9995 13.1001 16.9978C13.1001 16.9962 13.1001 16.9946 13.1001 16.9929C13.1001 16.9913 13.1001 16.9896 13.1001 16.988C13.1001 16.9864 13.1001 16.9847 13.1001 16.9831C13.1001 16.9815 13.1001 16.9798 13.1001 16.9782C13.1001 16.9766 13.1001 16.9749 13.1001 16.9733C13.1001 16.9716 13.1001 16.97 13.1001 16.9684C13.1001 16.9667 13.1001 16.9651 13.1001 16.9635C13.1001 16.9618 13.1001 16.9602 13.1001 16.9586C13.1001 16.9569 13.1001 16.9553 13.1001 16.9537C13.1001 16.952 13.1001 16.9504 13.1001 16.9488C13.1001 16.9471 13.1001 16.9455 13.1001 16.9439C13.1001 16.9422 13.1001 16.9406 13.1001 16.939C13.1001 16.9373 13.1001 16.9357 13.1001 16.9341C13.1001 16.9324 13.1001 16.9308 13.1001 16.9292C13.1001 16.9275 13.1001 16.9259 13.1001 16.9243C13.1001 16.9226 13.1001 16.921 13.1001 16.9194C13.1001 16.9177 13.1001 16.9161 13.1001 16.9145C13.1001 16.9128 13.1001 16.9112 13.1001 16.9096C13.1001 16.9079 13.1001 16.9063 13.1001 16.9047C13.1001 16.9031 13.1001 16.9014 13.1001 16.8998C13.1001 16.8982 13.1001 16.8965 13.1001 16.8949C13.1001 16.8933 13.1001 16.8916 13.1001 16.89C13.1001 16.8884 13.1001 16.8868 13.1001 16.8851C13.1001 16.8835 13.1001 16.8819 13.1001 16.8802C13.1001 16.8786 13.1001 16.877 13.1001 16.8754C13.1001 16.8737 13.1001 16.8721 13.1001 16.8705C13.1001 16.8688 13.1001 16.8672 13.1001 16.8656C13.1001 16.864 13.1001 16.8623 13.1001 16.8607C13.1001 16.8591 13.1001 16.8574 13.1001 16.8558C13.1001 16.8542 13.1001 16.8526 13.1001 16.8509C13.1001 16.8493 13.1001 16.8477 13.1001 16.8461C13.1001 16.8444 13.1001 16.8428 13.1001 16.8412C13.1001 16.8396 13.1001 16.8379 13.1001 16.8363C13.1001 16.8347 13.1001 16.8331 13.1001 16.8314C13.1001 16.8298 13.1001 16.8282 13.1001 16.8266C13.1001 16.8249 13.1001 16.8233 13.1001 16.8217C13.1001 16.8201 13.1001 16.8184 13.1001 16.8168C13.1001 16.8152 13.1001 16.8136 13.1001 16.8119C13.1001 16.8103 13.1001 16.8087 13.1001 16.8071C13.1001 16.8054 13.1001 16.8038 13.1001 16.8022C13.1001 16.8006 13.1001 16.799 13.1001 16.7973C13.1001 16.7957 13.1001 16.7941 13.1001 16.7925C13.1001 16.7908 13.1001 16.7892 13.1001 16.7876C13.1001 16.786 13.1001 16.7844 13.1001 16.7827C13.1001 16.7811 13.1001 16.7795 13.1001 16.7779C13.1001 16.7763 13.1001 16.7746 13.1001 16.773C13.1001 16.7714 13.1001 16.7698 13.1001 16.7681C13.1001 16.7665 13.1001 16.7649 13.1001 16.7633C13.1001 16.7617 13.1001 16.76 13.1001 16.7584C13.1001 16.7568 13.1001 16.7552 13.1001 16.7536C13.1001 16.752 13.1001 16.7503 13.1001 16.7487C13.1001 16.7471 13.1001 16.7455 13.1001 16.7439C13.1001 16.7422 13.1001 16.7406 13.1001 16.739C13.1001 16.7374 13.1001 16.7358 13.1001 16.7342C13.1001 16.7325 13.1001 16.7309 13.1001 16.7293C13.1001 16.7277 13.1001 16.7261 13.1001 16.7245C13.1001 16.7228 13.1001 16.7212 13.1001 16.7196C13.1001 16.718 13.1001 16.7164 13.1001 16.7148C13.1001 16.7131 13.1001 16.7115 13.1001 16.7099C13.1001 16.7083 13.1001 16.7067 13.1001 16.7051C13.1001 16.7034 13.1001 16.7018 13.1001 16.7002C13.1001 16.6986 13.1001 16.697 13.1001 16.6954C13.1001 16.6938 13.1001 16.6921 13.1001 16.6905C13.1001 16.6889 13.1001 16.6873 13.1001 16.6857C13.1001 16.6841 13.1001 16.6825 13.1001 16.6808C13.1001 16.6792 13.1001 16.6776 13.1001 16.676C13.1001 16.6744 13.1001 16.6728 13.1001 16.6712C13.1001 16.6696 13.1001 16.6679 13.1001 16.6663C13.1001 16.6647 13.1001 16.6631 13.1001 16.6615C13.1001 16.6599 13.1001 16.6583 13.1001 16.6567C13.1001 16.6551 13.1001 16.6534 13.1001 16.6518C13.1001 16.6502 13.1001 16.6486 13.1001 16.647C13.1001 16.6454 13.1001 16.6438 13.1001 16.6422C13.1001 16.6406 13.1001 16.6389 13.1001 16.6373C13.1001 16.6357 13.1001 16.6341 13.1001 16.6325C13.1001 16.6309 13.1001 16.6293 13.1001 16.6277C13.1001 16.6261 13.1001 16.6245 13.1001 16.6229C13.1001 16.6212 13.1001 16.6196 13.1001 16.618C13.1001 16.6164 13.1001 16.6148 13.1001 16.6132C13.1001 16.6116 13.1001 16.61 13.1001 16.6084C13.1001 16.6068 13.1001 16.6052 13.1001 16.6036C13.1001 16.602 13.1001 16.6004 13.1001 16.5987C13.1001 16.5971 13.1001 16.5955 13.1001 16.5939C13.1001 16.5923 13.1001 16.5907 13.1001 16.5891C13.1001 16.5875 13.1001 16.5859 13.1001 16.5843C13.1001 16.5827 13.1001 16.5811 13.1001 16.5795C13.1001 16.5779 13.1001 16.5763 13.1001 16.5747C13.1001 16.5731 13.1001 16.5715 13.1001 16.5698C13.1001 16.5682 13.1001 16.5666 13.1001 16.565C13.1001 16.5634 13.1001 16.5618 13.1001 16.5602C13.1001 16.5586 13.1001 16.557 13.1001 16.5554C13.1001 16.5538 13.1001 16.5522 13.1001 16.5506C13.1001 16.549 13.1001 16.5474 13.1001 16.5458C13.1001 16.5442 13.1001 16.5426 13.1001 16.541C13.1001 16.5394 13.1001 16.5378 13.1001 16.5362C13.1001 16.5346 13.1001 16.533 13.1001 16.5314C13.1001 16.5298 13.1001 16.5282 13.1001 16.5266C13.1001 16.525 13.1001 16.5234 13.1001 16.5218C13.1001 16.5202 13.1001 16.5186 13.1001 16.517C13.1001 16.5154 13.1001 16.5138 13.1001 16.5122C13.1001 16.5106 13.1001 16.509 13.1001 16.5074C13.1001 16.5058 13.1001 16.5042 13.1001 16.5026C13.1001 16.501 13.1001 16.4994 13.1001 16.4978C13.1001 16.4962 13.1001 16.4946 13.1001 16.493C13.1001 16.4914 13.1001 16.4898 13.1001 16.4882C13.1001 16.4866 13.1001 16.485 13.1001 16.4834C13.1001 16.4818 13.1001 16.4802 13.1001 16.4786C13.1001 16.477 13.1001 16.4754 13.1001 16.4739C13.1001 16.4723 13.1001 16.4707 13.1001 16.4691C13.1001 16.4675 13.1001 16.4659 13.1001 16.4643C13.1001 16.4627 13.1001 16.4611 13.1001 16.4595C13.1001 16.4579 13.1001 16.4563 13.1001 16.4547C13.1001 16.4531 13.1001 16.4515 13.1001 16.4499C13.1001 16.4483 13.1001 16.4467 13.1001 16.4451C13.1001 16.4436 13.1001 16.442 13.1001 16.4404C13.1001 16.4388 13.1001 16.4372 13.1001 16.4356C13.1001 16.434 13.1001 16.4324 13.1001 16.4308C13.1001 16.4292 13.1001 16.4276 13.1001 16.426C13.1001 16.4244 13.1001 16.4229 13.1001 16.4213C13.1001 16.4197 13.1001 16.4181 13.1001 16.4165C13.1001 16.4149 13.1001 16.4133 13.1001 16.4117C13.1001 16.4101 13.1001 16.4085 13.1001 16.4069C13.1001 16.4054 13.1001 16.4038 13.1001 16.4022C13.1001 16.4006 13.1001 16.399 13.1001 16.3974C13.1001 16.3958 13.1001 16.3942 13.1001 16.3926C13.1001 16.3911 13.1001 16.3895 13.1001 16.3879C13.1001 16.3863 13.1001 16.3847 13.1001 16.3831C13.1001 16.3815 13.1001 16.3799 13.1001 16.3783C13.1001 16.3768 13.1001 16.3752 13.1001 16.3736C13.1001 16.372 13.1001 16.3704 13.1001 16.3688C13.1001 16.3672 13.1001 16.3657 13.1001 16.3641C13.1001 16.3625 13.1001 16.3609 13.1001 16.3593C13.1001 16.3577 13.1001 16.3561 13.1001 16.3546C13.1001 16.353 13.1001 16.3514 13.1001 16.3498C13.1001 16.3482 13.1001 16.3466 13.1001 16.345C13.1001 16.3435 13.1001 16.3419 13.1001 16.3403C13.1001 16.3387 13.1001 16.3371 13.1001 16.3355C13.1001 16.334 13.1001 16.3324 13.1001 16.3308C13.1001 16.3292 13.1001 16.3276 13.1001 16.326C13.1001 16.3245 13.1001 16.3229 13.1001 16.3213C13.1001 16.3197 13.1001 16.3181 13.1001 16.3165C13.1001 16.315 13.1001 16.3134 13.1001 16.3118C13.1001 16.3102 13.1001 16.3086 13.1001 16.3071C13.1001 16.3055 13.1001 16.3039 13.1001 16.3023C13.1001 16.3007 13.1001 16.2992 13.1001 16.2976C13.1001 16.296 13.1001 16.2944 13.1001 16.2928C13.1001 16.2913 13.1001 16.2897 13.1001 16.2881C13.1001 16.2865 13.1001 16.2849 13.1001 16.2834C13.1001 16.2818 13.1001 16.2802 13.1001 16.2786C13.1001 16.277 13.1001 16.2755 13.1001 16.2739C13.1001 16.2723 13.1001 16.2707 13.1001 16.2692C13.1001 16.2676 13.1001 16.266 13.1001 16.2644C13.1001 16.2628 13.1001 16.2613 13.1001 16.2597C13.1001 16.2581 13.1001 16.2565 13.1001 16.255C13.1001 16.2534 13.1001 16.2518 13.1001 16.2502C13.1001 16.2487 13.1001 16.2471 13.1001 16.2455C13.1001 16.2439 13.1001 16.2424 13.1001 16.2408C13.1001 16.2392 13.1001 16.2376 13.1001 16.2361C13.1001 16.2345 13.1001 16.2329 13.1001 16.2313C13.1001 16.2298 13.1001 16.2282 13.1001 16.2266C13.1001 16.225 13.1001 16.2235 13.1001 16.2219C13.1001 16.2203 13.1001 16.2187 13.1001 16.2172C13.1001 16.2156 13.1001 16.214 13.1001 16.2125C13.1001 16.2109 13.1001 16.2093 13.1001 16.2077C13.1001 16.2062 13.1001 16.2046 13.1001 16.203C13.1001 16.2015 13.1001 16.1999 13.1001 16.1983C13.1001 16.1967 13.1001 16.1952 13.1001 16.1936C13.1001 16.192 13.1001 16.1905 13.1001 16.1889C13.1001 16.1873 13.1001 16.1857 13.1001 16.1842C13.1001 16.1826 13.1001 16.181 13.1001 16.1795C13.1001 16.1779 13.1001 16.1763 13.1001 16.1748C13.1001 16.1732 13.1001 16.1716 13.1001 16.1701C13.1001 16.1685 13.1001 16.1669 13.1001 16.1654C13.1001 16.1638 13.1001 16.1622 13.1001 16.1606C13.1001 16.1591 13.1001 16.1575 13.1001 16.1559C13.1001 16.1544 13.1001 16.1528 13.1001 16.1512C13.1001 16.1497 13.1001 16.1481 13.1001 16.1465C13.1001 16.145 13.1001 16.1434 13.1001 16.1418C13.1001 16.1403 13.1001 16.1387 13.1001 16.1372C13.1001 16.1356 13.1001 16.134 13.1001 16.1325C13.1001 16.1309 13.1001 16.1293 13.1001 16.1278C13.1001 16.1262 13.1001 16.1246 13.1001 16.1231C13.1001 16.1215 13.1001 16.1199 13.1001 16.1184C13.1001 16.1168 13.1001 16.1153 13.1001 16.1137C13.1001 16.1121 13.1001 16.1106 13.1001 16.109C13.1001 16.1074 13.1001 16.1059 13.1001 16.1043C13.1001 16.1028 13.1001 16.1012 13.1001 16.0996C13.1001 16.0981 13.1001 16.0965 13.1001 16.0949C13.1001 16.0934 13.1001 16.0918 13.1001 16.0903C13.1001 16.0887 13.1001 16.0871 13.1001 16.0856C13.1001 16.084 13.1001 16.0825 13.1001 16.0809C13.1001 16.0793 13.1001 16.0778 13.1001 16.0762C13.1001 16.0747 13.1001 16.0731 13.1001 16.0716C13.1001 16.07 13.1001 16.0684 13.1001 16.0669C13.1001 16.0653 13.1001 16.0638 13.1001 16.0622C13.1001 16.0606 13.1001 16.0591 13.1001 16.0575C13.1001 16.056 13.1001 16.0544 13.1001 16.0529C13.1001 16.0513 13.1001 16.0497 13.1001 16.0482C13.1001 16.0466 13.1001 16.0451 13.1001 16.0435C13.1001 16.042 13.1001 16.0404 13.1001 16.0388C13.1001 16.0373 13.1001 16.0357 13.1001 16.0342C13.1001 16.0326 13.1001 16.0311 13.1001 16.0295C13.1001 16.028 13.1001 16.0264 13.1001 16.0249C13.1001 16.0233 13.1001 16.0217 13.1001 16.0202C13.1001 16.0186 13.1001 16.0171 13.1001 16.0155C13.1001 16.014 13.1001 16.0124 13.1001 16.0109C13.1001 16.0093 13.1001 16.0078 13.1001 16.0062C13.1001 16.0047 13.1001 16.0031 13.1001 16.0016C13.1001 16 13.1001 15.9985 13.1001 15.9969C13.1001 15.9954 13.1001 15.9938 13.1001 15.9923C13.1001 15.9907 13.1001 15.9892 13.1001 15.9876C13.1001 15.986 13.1001 15.9845 13.1001 15.9829C13.1001 15.9814 13.1001 15.9798 13.1001 15.9783C13.1001 15.9768 13.1001 15.9752 13.1001 15.9737C13.1001 15.9721 13.1001 15.9706 13.1001 15.969C13.1001 15.9675 13.1001 15.9659 13.1001 15.9644C13.1001 15.9628 13.1001 15.9613 13.1001 15.9597C13.1001 15.9582 13.1001 15.9566 13.1001 15.9551C13.1001 15.9535 13.1001 15.952 13.1001 15.9504C13.1001 15.9489 13.1001 15.9473 13.1001 15.9458C13.1001 15.9442 13.1001 15.9427 13.1001 15.9412C13.1001 15.9396 13.1001 15.9381 13.1001 15.9365C13.1001 15.935 13.1001 15.9334 13.1001 15.9319C13.1001 15.9303 13.1001 15.9288 13.1001 15.9273C13.1001 15.9257 13.1001 15.9242 13.1001 15.9226C13.1001 15.9211 13.1001 15.9195 13.1001 15.918C13.1001 15.9164 13.1001 15.9149 13.1001 15.9134C13.1001 15.9118 13.1001 15.9103 13.1001 15.9087C13.1001 15.9072 13.1001 15.9056 13.1001 15.9041C13.1001 15.9026 13.1001 15.901 13.1001 15.8995C13.1001 15.8979 13.1001 15.8964 13.1001 15.8949C13.1001 15.8933 13.1001 15.8918 13.1001 15.8902C13.1001 15.8887 13.1001 15.8872 13.1001 15.8856C13.1001 15.8841 13.1001 15.8825 13.1001 15.881C13.1001 15.8795 13.1001 15.8779 13.1001 15.8764C13.1001 15.8748 13.1001 15.8733 13.1001 15.8718C13.1001 15.8702 13.1001 15.8687 13.1001 15.8671C13.1001 15.8656 13.1001 15.8641 13.1001 15.8625C13.1001 15.861 13.1001 15.8595 13.1001 15.8579C13.1001 15.8564 13.1001 15.8548 13.1001 15.8533C13.1001 15.8518 13.1001 15.8502 13.1001 15.8487C13.1001 15.8472 13.1001 15.8456 13.1001 15.8441C13.1001 15.8426 13.1001 15.841 13.1001 15.8395C13.1001 15.8379 13.1001 15.8364 13.1001 15.8349C13.1001 15.8333 13.1001 15.8318 13.1001 15.8303C13.1001 15.8287 13.1001 15.8272 13.1001 15.8257C13.1001 15.8241 13.1001 15.8226 13.1001 15.8211C13.1001 15.8195 13.1001 15.818 13.1001 15.8165C13.1001 15.8149 13.1001 15.8134 13.1001 15.8119C13.1001 15.8103 13.1001 15.8088 13.1001 15.8073C13.1001 15.8057 13.1001 15.8042 13.1001 15.8027C13.1001 15.8012 13.1001 15.7996 13.1001 15.7981C13.1001 15.7966 13.1001 15.795 13.1001 15.7935C13.1001 15.792 13.1001 15.7904 13.1001 15.7889C13.1001 15.7874 13.1001 15.7858 13.1001 15.7843C13.1001 15.7828 13.1001 15.7813 13.1001 15.7797C13.1001 15.7782 13.1001 15.7767 13.1001 15.7751C13.1001 15.7736 13.1001 15.7721 13.1001 15.7706C13.1001 15.769 13.1001 15.7675 13.1001 15.766C13.1001 15.7645 13.1001 15.7629 13.1001 15.7614C13.1001 15.7599 13.1001 15.7583 13.1001 15.7568C13.1001 15.7553 13.1001 15.7538 13.1001 15.7522C13.1001 15.7507 13.1001 15.7492 13.1001 15.7477C13.1001 15.7461 13.1001 15.7446 13.1001 15.7431C13.1001 15.7416 13.1001 15.74 13.1001 15.7385C13.1001 15.737 13.1001 15.7355 13.1001 15.7339C13.1001 15.7324 13.1001 15.7309 13.1001 15.7294C13.1001 15.7278 13.1001 15.7263 13.1001 15.7248C13.1001 15.7233 13.1001 15.7218 13.1001 15.7202C13.1001 15.7187 13.1001 15.7172 13.1001 15.7157C13.1001 15.7141 13.1001 15.7126 13.1001 15.7111C13.1001 15.7096 13.1001 15.7081 13.1001 15.7065C13.1001 15.705 13.1001 15.7035 13.1001 15.702C13.1001 15.7005 13.1001 15.6989 13.1001 15.6974C13.1001 15.6959 13.1001 15.6944 13.1001 15.6929C13.1001 15.6913 13.1001 15.6898 13.1001 15.6883C13.1001 15.6868 13.1001 15.6853 13.1001 15.6837C13.1001 15.6822 13.1001 15.6807 13.1001 15.6792C13.1001 15.6777 13.1001 15.6762 13.1001 15.6746C13.1001 15.6731 13.1001 15.6716 13.1001 15.6701C13.1001 15.6686 13.1001 15.667 13.1001 15.6655C13.1001 15.664 13.1001 15.6625 13.1001 15.661C13.1001 15.6595 13.1001 15.658 13.1001 15.6564C13.1001 15.6549 13.1001 15.6534 13.1001 15.6519C13.1001 15.6504 13.1001 15.6489 13.1001 15.6473C13.1001 15.6458 13.1001 15.6443 13.1001 15.6428C13.1001 15.6413 13.1001 15.6398 13.1001 15.6383C13.1001 15.6368 13.1001 15.6352 13.1001 15.6337C13.1001 15.6322 13.1001 15.6307 13.1001 15.6292C13.1001 15.6277 13.1001 15.6262 13.1001 15.6247C13.1001 15.6231 13.1001 15.6216 13.1001 15.6201C13.1001 15.6186 13.1001 15.6171 13.1001 15.6156C13.1001 15.6141 13.1001 15.6126 13.1001 15.6111C13.1001 15.6095 13.1001 15.608 13.1001 15.6065C13.1001 15.605 13.1001 15.6035 13.1001 15.602C13.1001 15.6005 13.1001 15.599 13.1001 15.5975C13.1001 15.596 13.1001 15.5944 13.1001 15.5929C13.1001 15.5914 13.1001 15.5899 13.1001 15.5884C13.1001 15.5869 13.1001 15.5854 13.1001 15.5839C13.1001 15.5824 13.1001 15.5809 13.1001 15.5794C13.1001 15.5779 13.1001 15.5764 13.1001 15.5749C13.1001 15.5733 13.1001 15.5718 13.1001 15.5703C13.1001 15.5688 13.1001 15.5673 13.1001 15.5658C13.1001 15.5643 13.1001 15.5628 13.1001 15.5613C13.1001 15.5598 13.1001 15.5583 13.1001 15.5568C13.1001 15.5553 13.1001 15.5538 13.1001 15.5523C13.1001 15.5508 13.1001 15.5493 13.1001 15.5478C13.1001 15.5463 13.1001 15.5448 13.1001 15.5433C13.1001 15.5418 13.1001 15.5403 13.1001 15.5388C13.1001 15.5373 13.1001 15.5357 13.1001 15.5342C13.1001 15.5327 13.1001 15.5312 13.1001 15.5297C13.1001 15.5282 13.1001 15.5267 13.1001 15.5252C13.1001 15.5237 13.1001 15.5222 13.1001 15.5207C13.1001 15.5192 13.1001 15.5177 13.1001 15.5162C13.1001 15.5147 13.1001 15.5132 13.1001 15.5117C13.1001 15.5102 13.1001 15.5087 13.1001 15.5072C13.1001 15.5057 13.1001 15.5042 13.1001 15.5028C13.1001 15.5013 13.1001 15.4998 13.1001 15.4983C13.1001 15.4968 13.1001 15.4953 13.1001 15.4938C13.1001 15.4923 13.1001 15.4908 13.1001 15.4893C13.1001 15.4878 13.1001 15.4863 13.1001 15.4848C13.1001 15.4833 13.1001 15.4818 13.1001 15.4803C13.1001 15.4788 13.1001 15.4773 13.1001 15.4758C13.1001 15.4743 13.1001 15.4728 13.1001 15.4713C13.1001 15.4698 13.1001 15.4683 13.1001 15.4669C13.1001 15.4654 13.1001 15.4639 13.1001 15.4624C13.1001 15.4609 13.1001 15.4594 13.1001 15.4579C13.1001 15.4564 13.1001 15.4549 13.1001 15.4534C13.1001 15.4519 13.1001 15.4504 13.1001 15.4489C13.1001 15.4474 13.1001 15.446 13.1001 15.4445C13.1001 15.443 13.1001 15.4415 13.1001 15.44C13.1001 15.4385 13.1001 15.437 13.1001 15.4355C13.1001 15.434 13.1001 15.4325 13.1001 15.4311C13.1001 15.4296 13.1001 15.4281 13.1001 15.4266C13.1001 15.4251 13.1001 15.4236 13.1001 15.4221C13.1001 15.4206 13.1001 15.4191 13.1001 15.4177C13.1001 15.4162 13.1001 15.4147 13.1001 15.4132C13.1001 15.4117 13.1001 15.4102 13.1001 15.4087C13.1001 15.4072 13.1001 15.4058 13.1001 15.4043C13.1001 15.4028 13.1001 15.4013 13.1001 15.3998C13.1001 15.3983 13.1001 15.3968 13.1001 15.3954C13.1001 15.3939 13.1001 15.3924 13.1001 15.3909C13.1001 15.3894 13.1001 15.3879 13.1001 15.3864C13.1001 15.385 13.1001 15.3835 13.1001 15.382C13.1001 15.3805 13.1001 15.379 13.1001 15.3775C13.1001 15.3761 13.1001 15.3746 13.1001 15.3731C13.1001 15.3716 13.1001 15.3701 13.1001 15.3687C13.1001 15.3672 13.1001 15.3657 13.1001 15.3642C13.1001 15.3627 13.1001 15.3612 13.1001 15.3598C13.1001 15.3583 13.1001 15.3568 13.1001 15.3553C13.1001 15.3538 13.1001 15.3524 13.1001 15.3509C13.1001 15.3494 13.1001 15.3479 13.1001 15.3464C13.1001 15.345 13.1001 15.3435 13.1001 15.342C13.1001 15.3405 13.1001 15.339 13.1001 15.3376C13.1001 15.3361 13.1001 15.3346 13.1001 15.3331C13.1001 15.3317 13.1001 15.3302 13.1001 15.3287C13.1001 15.3272 13.1001 15.3258 13.1001 15.3243C13.1001 15.3228 13.1001 15.3213 13.1001 15.3198C13.1001 15.3184 13.1001 15.3169 13.1001 15.3154C13.1001 15.3139 13.1001 15.3125 13.1001 15.311C13.1001 15.3095 13.1001 15.308 13.1001 15.3066C13.1001 15.3051 13.1001 15.3036 13.1001 15.3021C13.1001 15.3007 13.1001 15.2992 13.1001 15.2977C13.1001 15.2963 13.1001 15.2948 13.1001 15.2933C13.1001 15.2918 13.1001 15.2904 13.1001 15.2889C13.1001 15.2874 13.1001 15.2859 13.1001 15.2845C13.1001 15.283 13.1001 15.2815 13.1001 15.2801C13.1001 15.2786 13.1001 15.2771 13.1001 15.2756C13.1001 15.2742 13.1001 15.2727 13.1001 15.2712C13.1001 15.2698 13.1001 15.2683 13.1001 15.2668C13.1001 15.2654 13.1001 15.2639 13.1001 15.2624C13.1001 15.261 13.1001 15.2595 13.1001 15.258C13.1001 15.2565 13.1001 15.2551 13.1001 15.2536C13.1001 15.2521 13.1001 15.2507 13.1001 15.2492C13.1001 15.2477 13.1001 15.2463 13.1001 15.2448C13.1001 15.2433 13.1001 15.2419 13.1001 15.2404C13.1001 15.2389 13.1001 15.2375 13.1001 15.236C13.1001 15.2345 13.1001 15.2331 13.1001 15.2316C13.1001 15.2301 13.1001 15.2287 13.1001 15.2272C13.1001 15.2258 13.1001 15.2243 13.1001 15.2228C13.1001 15.2214 13.1001 15.2199 13.1001 15.2184C13.1001 15.217 13.1001 15.2155 13.1001 15.214C13.1001 15.2126 13.1001 15.2111 13.1001 15.2097C13.1001 15.2082 13.1001 15.2067 13.1001 15.2053C13.1001 15.2038 13.1001 15.2023 13.1001 15.2009C13.1001 15.1994 13.1001 15.198 13.1001 15.1965C13.1001 15.195 13.1001 15.1936 13.1001 15.1921C13.1001 15.1907 13.1001 15.1892 13.1001 15.1877C13.1001 15.1863 13.1001 15.1848 13.1001 15.1834C13.1001 15.1819 13.1001 15.1805 13.1001 15.179C13.1001 15.1775 13.1001 15.1761 13.1001 15.1746C13.1001 15.1732 13.1001 15.1717 13.1001 15.1702C13.1001 15.1688 13.1001 15.1673 13.1001 15.1659C13.1001 15.1644 13.1001 15.163 13.1001 15.1615C13.1001 15.16 13.1001 15.1586 13.1001 15.1571C13.1001 15.1557 13.1001 15.1542 13.1001 15.1528C13.1001 15.1513 13.1001 15.1499 13.1001 15.1484C13.1001 15.147 13.1001 15.1455 13.1001 15.144C13.1001 15.1426 13.1001 15.1411 13.1001 15.1397C13.1001 15.1382 13.1001 15.1368 13.1001 15.1353C13.1001 15.1339 13.1001 15.1324 13.1001 15.131C13.1001 15.1295 13.1001 15.1281 13.1001 15.1266C13.1001 15.1252 13.1001 15.1237 13.1001 15.1223C13.1001 15.1208 13.1001 15.1194 13.1001 15.1179C13.1001 15.1165 13.1001 15.115 13.1001 15.1136C13.1001 15.1121 13.1001 15.1107 13.1001 15.1092C13.1001 15.1078 13.1001 15.1063 13.1001 15.1049C13.1001 15.1034 13.1001 15.102 13.1001 15.1005C13.1001 15.0991 13.1001 15.0976 13.1001 15.0962C13.1001 15.0947 13.1001 15.0933 13.1001 15.0918C13.1001 15.0904 13.1001 15.0889 13.1001 15.0875C13.1001 15.086 13.1001 15.0846 13.1001 15.0832C13.1001 15.0817 13.1001 15.0803 13.1001 15.0788C13.1001 15.0774 13.1001 15.0759 13.1001 15.0745C13.1001 15.073 13.1001 15.0716 13.1001 15.0701C13.1001 15.0687 13.1001 15.0673 13.1001 15.0658C13.1001 15.0644 13.1001 15.0629 13.1001 15.0615C13.1001 15.06 13.1001 15.0586 13.1001 15.0572C13.1001 15.0557 13.1001 15.0543 13.1001 15.0528C13.1001 15.0514 13.1001 15.0499 13.1001 15.0485C13.1001 15.0471 13.1001 15.0456 13.1001 15.0442C13.1001 15.0427 13.1001 15.0413 13.1001 15.0399C13.1001 15.0384 13.1001 15.037 13.1001 15.0355C13.1001 15.0341 13.1001 15.0327 13.1001 15.0312C13.1001 15.0298 13.1001 15.0283 13.1001 15.0269C13.1001 15.0255 13.1001 15.024 13.1001 15.0226C13.1001 15.0212 13.1001 15.0197 13.1001 15.0183C13.1001 15.0168 13.1001 15.0154 13.1001 15.014C13.1001 15.0125 13.1001 15.0111 13.1001 15.0097C13.1001 15.0082 13.1001 15.0068 13.1001 15.0054C13.1001 15.0039 13.1001 15.0025 13.1001 15.0011C13.1001 14.9996 13.1001 14.9982 13.1001 14.9967C13.1001 14.9953 13.1001 14.9939 13.1001 14.9924H12.1001ZM9.0001 11.8931C10.7123 11.8931 12.1001 13.2805 12.1001 14.9924H13.1001C13.1001 12.728 11.2644 10.8931 9.00009 10.8931L9.0001 11.8931ZM1.1001 14.9924C1.1001 13.2805 2.4879 11.8931 4.2001 11.8931L4.20009 10.8931C1.93584 10.8931 0.100098 12.728 0.100098 14.9924H1.1001ZM14.5001 6.0001V12.0001H15.5001V6.0001H14.5001ZM12.0001 9.5001H18.0001V8.5001H12.0001V9.5001Z" fill="#01877E"/>
</svg>
