<svg width="139" height="139" viewBox="0 0 139 139" fill="none" xmlns="http://www.w3.org/2000/svg">
<mask id="mask0" mask-type="alpha" maskUnits="userSpaceOnUse" x="12" y="10" width="115" height="115">
<rect x="12" y="10" width="115" height="115" rx="17" fill="white"/>
</mask>
<g mask="url(#mask0)">
<path d="M61.5112 106.818C82.2728 140.082 114.759 129.553 128.407 120.13C155.871 96.9247 157.646 69.7384 136.531 49.113C115.416 28.4877 95.8244 31.782 80.3182 38.78C67.8564 44.4041 35.5592 65.2385 61.5112 106.818Z" fill="#FFCECA"/>
<path d="M2.12826 134.26C22.8898 167.524 55.3758 156.994 69.0237 147.571C96.4879 124.366 98.2626 97.1798 77.1476 76.5544C56.0327 55.9291 36.4414 59.2234 20.9353 66.2214C8.47349 71.8455 -23.8237 92.6799 2.12826 134.26Z" fill="#B6DDDA"/>
<path d="M2.12826 134.26C22.8898 167.524 55.3758 156.994 69.0237 147.571C96.4879 124.366 98.2626 97.1798 77.1476 76.5544C56.0327 55.9291 36.4414 59.2234 20.9353 66.2214C8.47349 71.8455 -23.8237 92.6799 2.12826 134.26Z" fill="#B6DDDA"/>
<path d="M56.6485 32.5211C79.4441 69.1523 113.45 58.5945 127.603 48.7367C155.972 24.2976 157.123 -5.14255 134.29 -28.0748C111.457 -51.0071 90.8682 -47.9546 74.6891 -40.7763C61.6865 -35.0074 28.154 -13.2679 56.6485 32.5211Z" fill="#FFB0A9"/>
<path d="M35.6119 8.02257C-3.58806 8.82257 -11.0547 37.0226 -9.88806 51.0226C-3.88806 81.0225 18.6119 94.0226 47.1119 87.5226C75.6119 81.0226 82.7455 65.3321 84.6119 51.0226C86.1119 39.5225 84.6119 7.02257 35.6119 8.02257Z" fill="#FFE6A3"/>
</g>
<path d="M70 97V64.4483M70 66.4828V78.6897M70 66.4828C70 57.4938 62.5807 50.2069 53.4286 50.2069H41V62.4138C41 71.4027 48.4193 78.6897 57.5714 78.6897H70M70 66.4828H82.4286C91.5807 66.4828 99 59.1958 99 50.2069V38H86.5714C77.4193 38 70 45.287 70 54.2759V66.4828ZM70 66.4828L86.5714 50.2069M70 78.6897L53.4286 62.4138" stroke="#383838" stroke-width="3"/>
</svg>
