<svg width="295" height="312" viewBox="0 0 295 312" fill="none" xmlns="http://www.w3.org/2000/svg">
<path d="M34.425 125.023C62.8677 170.594 107.373 156.168 126.07 143.259C163.695 111.469 166.126 74.2247 137.199 45.9685C108.272 17.7124 81.433 22.2255 60.1901 31.8125C43.1178 39.5174 -1.12843 68.0599 34.425 125.023Z" fill="#FFDFDC"/>
<path d="M127.349 145.969C160.265 198.705 211.768 182.011 233.405 167.072C276.946 130.284 279.76 87.1828 246.284 54.4836C212.809 21.7843 181.749 27.0071 157.166 38.1017C137.409 47.018 86.2054 80.0487 127.349 145.969Z" fill="#B6DDDA"/>
<path d="M45.0888 243.743C76.3182 293.927 122.905 279.463 142.295 265.958C181.159 232.477 182.735 192.145 151.455 160.729C120.175 129.312 91.9689 133.494 69.804 143.328C51.9908 151.231 6.05216 181.014 45.0888 243.743Z" fill="#FFB0A9"/>
<path d="M252.694 258.995C286.33 216.712 259.602 181.045 242.033 168.497C201.299 145.313 166.092 156.332 148.63 192.9C131.167 229.468 143.411 252.467 158.669 268.531C170.932 281.44 210.65 311.849 252.694 258.995Z" fill="#FFE6A3"/>
<path d="M101.043 110.335L104.925 123.276M104.925 123.276L120.455 175.042H191.633V136.218C191.633 129.07 185.839 123.276 178.692 123.276H104.925ZM178.692 200.925C175.118 200.925 172.221 198.028 172.221 194.454C172.221 190.881 175.118 187.983 178.692 187.983C182.266 187.983 185.163 190.881 185.163 194.454C185.163 198.028 182.266 200.925 178.692 200.925ZM126.926 194.454C126.926 190.881 129.823 187.983 133.397 187.983C136.97 187.983 139.867 190.881 139.867 194.454C139.867 198.028 136.97 200.925 133.397 200.925C129.823 200.925 126.926 198.028 126.926 194.454Z" stroke="#383838" stroke-width="3"/>
</svg>
