<svg width="64" height="64" viewBox="0 0 64 64" fill="none" xmlns="http://www.w3.org/2000/svg">
<circle cx="32" cy="32" r="32" fill="#01877E"/>
<path d="M28.4307 22L29.3521 25.0714M29.3521 25.0714L33.0378 37.3571H49.9307V28.1429C49.9307 26.4466 48.5555 25.0714 46.8592 25.0714H29.3521ZM46.8592 43.5C46.0111 43.5 45.3235 42.8124 45.3235 41.9643C45.3235 41.1161 46.0111 40.4286 46.8592 40.4286C47.7074 40.4286 48.3949 41.1161 48.3949 41.9643C48.3949 42.8124 47.7074 43.5 46.8592 43.5ZM34.5735 41.9643C34.5735 41.1161 35.2611 40.4286 36.1092 40.4286C36.9574 40.4286 37.6449 41.1161 37.6449 41.9643C37.6449 42.8124 36.9574 43.5 36.1092 43.5C35.2611 43.5 34.5735 42.8124 34.5735 41.9643Z" stroke="white" stroke-width="1.5"/>
<path d="M24.4306 32.7778L19.6528 28M24.4306 32.7778L19.6528 37.5556M24.4306 32.7778H14" stroke="white" stroke-width="1.5"/>
</svg>
