<svg width="47" height="47" viewBox="0 0 47 47" fill="none" xmlns="http://www.w3.org/2000/svg">
<path d="M9.89286 41.1786V41.9286H11.3929V41.1786H9.89286ZM35.6071 41.1786V41.9286H37.1071V41.1786H35.6071ZM11.3929 41.1786V39.571H9.89286V41.1786H11.3929ZM20.2857 30.6786H26.7143V29.1786H20.2857V30.6786ZM35.6071 39.571V41.1786H37.1071V39.571H35.6071ZM26.7143 30.6786C31.6257 30.6786 35.6071 34.6596 35.6071 39.571H37.1071C37.1071 33.8311 32.4541 29.1786 26.7143 29.1786V30.6786ZM11.3929 39.571C11.3929 34.6596 15.3743 30.6786 20.2857 30.6786V29.1786C14.5459 29.1786 9.89286 33.8311 9.89286 39.571H11.3929ZM23.5 9.89286C19.5354 9.89286 16.3214 13.1068 16.3214 17.0714H17.8214C17.8214 13.9352 20.3638 11.3929 23.5 11.3929V9.89286ZM30.6786 17.0714C30.6786 13.1068 27.4646 9.89286 23.5 9.89286V11.3929C26.6362 11.3929 29.1786 13.9352 29.1786 17.0714H30.6786ZM23.5 24.25C27.4646 24.25 30.6786 21.036 30.6786 17.0714H29.1786C29.1786 20.2076 26.6362 22.75 23.5 22.75V24.25ZM23.5 22.75C20.3638 22.75 17.8214 20.2076 17.8214 17.0714H16.3214C16.3214 21.036 19.5354 24.25 23.5 24.25V22.75ZM23.5 45.25C11.4878 45.25 1.75 35.5122 1.75 23.5H0.25C0.25 36.3406 10.6594 46.75 23.5 46.75V45.25ZM45.25 23.5C45.25 35.5122 35.5122 45.25 23.5 45.25V46.75C36.3406 46.75 46.75 36.3406 46.75 23.5H45.25ZM23.5 1.75C35.5122 1.75 45.25 11.4878 45.25 23.5H46.75C46.75 10.6594 36.3406 0.25 23.5 0.25V1.75ZM23.5 0.25C10.6594 0.25 0.25 10.6594 0.25 23.5H1.75C1.75 11.4878 11.4878 1.75 23.5 1.75V0.25Z" fill="#383838"/>
</svg>
