<svg width="47" height="47" viewBox="0 0 47 47" fill="none" xmlns="http://www.w3.org/2000/svg">
<path d="M10.1429 41.1786V41.6786H11.1429V41.1786H10.1429ZM35.8571 41.1786V41.6786H36.8571V41.1786H35.8571ZM11.1429 41.1786V39.571H10.1429V41.1786H11.1429ZM20.2857 30.4286H26.7143V29.4286H20.2857V30.4286ZM35.8571 39.571V41.1786H36.8571V39.571H35.8571ZM26.7143 30.4286C31.7638 30.4286 35.8571 34.5215 35.8571 39.571H36.8571C36.8571 33.9692 32.316 29.4286 26.7143 29.4286V30.4286ZM11.1429 39.571C11.1429 34.5215 15.2362 30.4286 20.2857 30.4286V29.4286C14.684 29.4286 10.1429 33.9692 10.1429 39.571H11.1429ZM23.5 10.1429C19.6735 10.1429 16.5714 13.2449 16.5714 17.0714H17.5714C17.5714 13.7972 20.2257 11.1429 23.5 11.1429V10.1429ZM30.4286 17.0714C30.4286 13.2449 27.3265 10.1429 23.5 10.1429V11.1429C26.7743 11.1429 29.4286 13.7972 29.4286 17.0714H30.4286ZM23.5 24C27.3265 24 30.4286 20.898 30.4286 17.0714H29.4286C29.4286 20.3457 26.7743 23 23.5 23V24ZM23.5 23C20.2257 23 17.5714 20.3457 17.5714 17.0714H16.5714C16.5714 20.898 19.6735 24 23.5 24V23ZM23.5 45.5C11.3497 45.5 1.5 35.6503 1.5 23.5H0.5C0.5 36.2025 10.7975 46.5 23.5 46.5V45.5ZM45.5 23.5C45.5 35.6503 35.6503 45.5 23.5 45.5V46.5C36.2025 46.5 46.5 36.2025 46.5 23.5H45.5ZM23.5 1.5C35.6503 1.5 45.5 11.3497 45.5 23.5H46.5C46.5 10.7975 36.2025 0.5 23.5 0.5V1.5ZM23.5 0.5C10.7975 0.5 0.5 10.7975 0.5 23.5H1.5C1.5 11.3497 11.3497 1.5 23.5 1.5V0.5Z" fill="#383838"/>
</svg>
