<svg width="20" height="20" viewBox="0 0 20 20" fill="none" xmlns="http://www.w3.org/2000/svg">
<path d="M4.35714 17.0714V17.5714H5.35714V17.0714H4.35714ZM14.6429 17.0714V17.5714H15.6429V17.0714H14.6429ZM5.35714 17.0714V16.4284H4.35714V17.0714H5.35714ZM8.71429 13.0714H11.2857V12.0714H8.71429V13.0714ZM14.6429 16.4284V17.0714H15.6429V16.4284H14.6429ZM11.2857 13.0714C13.1398 13.0714 14.6429 14.5743 14.6429 16.4284H15.6429C15.6429 14.022 13.6921 12.0714 11.2857 12.0714V13.0714ZM5.35714 16.4284C5.35714 14.5743 6.86016 13.0714 8.71429 13.0714V12.0714C6.30793 12.0714 4.35714 14.022 4.35714 16.4284H5.35714ZM10 4.35714C8.3037 4.35714 6.92857 5.73227 6.92857 7.42857H7.92857C7.92857 6.28455 8.85598 5.35714 10 5.35714V4.35714ZM13.0714 7.42857C13.0714 5.73227 11.6963 4.35714 10 4.35714V5.35714C11.144 5.35714 12.0714 6.28455 12.0714 7.42857H13.0714ZM10 10.5C11.6963 10.5 13.0714 9.12488 13.0714 7.42857H12.0714C12.0714 8.57259 11.144 9.5 10 9.5V10.5ZM10 9.5C8.85598 9.5 7.92857 8.57259 7.92857 7.42857H6.92857C6.92857 9.12488 8.3037 10.5 10 10.5V9.5ZM10 18.5C5.30558 18.5 1.5 14.6944 1.5 10H0.5C0.5 15.2467 4.7533 19.5 10 19.5V18.5ZM18.5 10C18.5 14.6944 14.6944 18.5 10 18.5V19.5C15.2467 19.5 19.5 15.2467 19.5 10H18.5ZM10 1.5C14.6944 1.5 18.5 5.30558 18.5 10H19.5C19.5 4.7533 15.2467 0.5 10 0.5V1.5ZM10 0.5C4.7533 0.5 0.5 4.7533 0.5 10H1.5C1.5 5.30558 5.30558 1.5 10 1.5V0.5Z" fill="#01877E"/>
</svg>
