<svg width="64" height="64" viewBox="0 0 64 64" fill="none" xmlns="http://www.w3.org/2000/svg">
<circle cx="32" cy="32" r="32" fill="#01877E"/>
<path d="M37.3613 21L37.8494 20.4306C37.5686 20.1898 37.1541 20.1898 36.8732 20.4306L37.3613 21ZM26.6113 30.2143L26.1232 29.6448L25.8613 29.8693V30.2143H26.6113ZM34.2899 42.5V43.25C34.7041 43.25 35.0399 42.9142 35.0399 42.5H34.2899ZM40.4328 42.5H39.6828C39.6828 42.9142 40.0185 43.25 40.4328 43.25V42.5ZM48.1113 30.2143H48.8613V29.8693L48.5994 29.6448L48.1113 30.2143ZM28.147 43.25H34.2899V41.75H28.147V43.25ZM48.5994 29.6448L37.8494 20.4306L36.8732 21.5694L47.6232 30.7837L48.5994 29.6448ZM36.8732 20.4306L26.1232 29.6448L27.0994 30.7837L37.8494 21.5694L36.8732 20.4306ZM35.0399 42.5V37.8929H33.5399V42.5H35.0399ZM39.6828 37.8929V42.5H41.1828V37.8929H39.6828ZM40.4328 43.25H46.5756V41.75H40.4328V43.25ZM48.8613 40.9643V30.2143H47.3613V40.9643H48.8613ZM25.8613 30.2143V40.9643H27.3613V30.2143H25.8613ZM37.3613 35.5714C38.6434 35.5714 39.6828 36.6108 39.6828 37.8929H41.1828C41.1828 35.7823 39.4718 34.0714 37.3613 34.0714V35.5714ZM37.3613 34.0714C35.2508 34.0714 33.5399 35.7823 33.5399 37.8929H35.0399C35.0399 36.6108 36.0792 35.5714 37.3613 35.5714V34.0714ZM46.5756 43.25C47.838 43.25 48.8613 42.2267 48.8613 40.9643H47.3613C47.3613 41.3982 47.0096 41.75 46.5756 41.75V43.25ZM28.147 41.75C27.7131 41.75 27.3613 41.3982 27.3613 40.9643H25.8613C25.8613 42.2267 26.8847 43.25 28.147 43.25V41.75Z" fill="white"/>
<path d="M22.4306 31.7499L17.6528 26.9722M22.4306 31.7499L17.6528 36.5277M22.4306 31.7499H12" stroke="white" stroke-width="1.5"/>
</svg>
