<svg width="64" height="64" viewBox="0 0 64 64" fill="none" xmlns="http://www.w3.org/2000/svg">
<circle cx="32" cy="32" r="32" fill="#FFB0A9"/>
<path d="M41.5312 43H24.9062C24.7412 43 24.5844 42.9311 24.4728 42.8112L16.1603 33.9049C15.9466 33.6769 15.9466 33.3231 16.1603 33.0939L24.4728 24.1876C24.5844 24.0689 24.7412 24 24.9062 24H41.5312C43.1688 24 44.5 25.3324 44.5 26.9688V40.0312C44.5 41.6676 43.1688 43 41.5312 43ZM25.1639 41.8125H41.5312C42.5133 41.8125 43.3125 41.0133 43.3125 40.0312V26.9688C43.3125 25.9867 42.5133 25.1875 41.5312 25.1875H25.1639L17.406 33.5L25.1639 41.8125Z" fill="#383838"/>
<path d="M38.5623 38.2501C38.4103 38.2501 38.2583 38.1919 38.1419 38.0767L29.8294 29.7642C29.5979 29.5326 29.5979 29.1562 29.8294 28.9246C30.061 28.6931 30.4374 28.6931 30.669 28.9246L38.9815 37.2371C39.2131 37.4687 39.2131 37.8451 38.9815 38.0767C38.8663 38.1919 38.7143 38.2501 38.5623 38.2501Z" fill="#383838"/>
<path d="M30.2498 38.2501C30.0978 38.2501 29.9458 38.1919 29.8294 38.0767C29.5979 37.8451 29.5979 37.4687 29.8294 37.2371L38.1419 28.9246C38.3735 28.6931 38.7499 28.6931 38.9815 28.9246C39.2131 29.1562 39.2131 29.5326 38.9815 29.7642L30.669 38.0767C30.5538 38.1919 30.4018 38.2501 30.2498 38.2501Z" fill="#383838"/>
</svg>
