<svg width="23" height="23" viewBox="0 0 23 23" fill="none" xmlns="http://www.w3.org/2000/svg">
<path d="M6.6 14.95L6.3 15.35L7.1 15.95L7.4 15.55L6.6 14.95ZM15.6 15.55L15.9 15.95L16.7 15.35L16.4 14.95L15.6 15.55ZM11.5 21.5C5.97715 21.5 1.5 17.0228 1.5 11.5H0.5C0.5 17.5751 5.42487 22.5 11.5 22.5V21.5ZM21.5 11.5C21.5 17.0228 17.0228 21.5 11.5 21.5V22.5C17.5751 22.5 22.5 17.5751 22.5 11.5H21.5ZM11.5 1.5C17.0228 1.5 21.5 5.97715 21.5 11.5H22.5C22.5 5.42487 17.5751 0.5 11.5 0.5V1.5ZM11.5 0.5C5.42487 0.5 0.5 5.42487 0.5 11.5H1.5C1.5 5.97715 5.97715 1.5 11.5 1.5V0.5ZM6.25 9H7.75V8H6.25V9ZM15.25 9H16.75V8H15.25V9ZM16.4 14.95C13.95 11.6833 9.05 11.6833 6.6 14.95L7.4 15.55C9.45 12.8167 13.55 12.8167 15.6 15.55L16.4 14.95Z" fill="black"/>
</svg>
