<svg width="48" height="48" viewBox="0 0 48 48" fill="none" xmlns="http://www.w3.org/2000/svg">
<path d="M1 1L2.97143 7.57143M2.97143 7.57143L10.8571 33.8571H47V14.1429C47 10.5136 44.0579 7.57143 40.4286 7.57143H2.97143ZM40.4286 47C38.6139 47 37.1429 45.5289 37.1429 43.7143C37.1429 41.8996 38.6139 40.4286 40.4286 40.4286C42.2432 40.4286 43.7143 41.8996 43.7143 43.7143C43.7143 45.5289 42.2432 47 40.4286 47ZM14.1429 43.7143C14.1429 41.8996 15.6139 40.4286 17.4286 40.4286C19.2432 40.4286 20.7143 41.8996 20.7143 43.7143C20.7143 45.5289 19.2432 47 17.4286 47C15.6139 47 14.1429 45.5289 14.1429 43.7143Z" stroke="#383838" stroke-width="1.5"/>
</svg>
