<svg width="38" height="30" viewBox="0 0 38 30" fill="none" xmlns="http://www.w3.org/2000/svg">
<path d="M1.05243 26.0439C1.14738 27.9429 2.18691 28.6226 4.13841 28.6551C13.6337 28.8134 32.9804 29.0349 34.4047 28.6551C35.829 28.2753 36.5306 27.4682 36.5412 26.0439C36.5807 20.7028 36.4887 8.88318 36.4887 6.69719C36.4887 4.67943 35.0644 4.32336 33.5739 4.32336H26.9934C25.9252 4.32336 26.1626 3.37383 26.0439 2.18691C25.9362 1.10965 24.8303 1.03956 24.1973 1H13.3963C12.6842 1 11.2599 1 11.2599 2.89906C11.2599 4.41831 10.614 4.67943 9.71691 4.67943H3.61121C1.47476 4.67943 1.05243 5.98504 1.05243 7.29064C1.01286 12.7504 0.957475 24.1448 1.05243 26.0439Z" stroke="#9A9A9C"/>
<circle cx="18.9222" cy="16.5487" r="7.92709" stroke="#9A9A9C"/>
<circle cx="32.0973" cy="8.59621" r="1.39906" stroke="#9A9A9C"/>
</svg>
