<svg width="53" height="42" viewBox="0 0 53 42" fill="none" xmlns="http://www.w3.org/2000/svg">
<path d="M1.07526 36.9506C1.21157 39.6767 2.70382 40.6523 5.50519 40.699C19.1357 40.9261 46.908 41.2442 48.9526 40.699C50.9971 40.1537 52.0043 38.9951 52.0194 36.9506C52.0762 29.2834 51.9442 12.3163 51.9442 9.17833C51.9442 6.28183 49.8996 5.77069 47.7599 5.77069H38.3136C36.7802 5.77069 37.1209 4.40764 36.9506 2.70382C36.7959 1.15741 35.2084 1.05679 34.2997 1H18.795C17.7727 1 15.7281 1 15.7281 3.72611C15.7281 5.907 14.8009 6.28183 13.5131 6.28183H4.7484C1.68152 6.28183 1.07526 8.15604 1.07526 10.0302C1.01847 17.8678 0.938956 34.2244 1.07526 36.9506Z" stroke="#383838" stroke-width="1.5"/>
<circle cx="26.7276" cy="23.3201" r="11.3471" stroke="#383838" stroke-width="1.5"/>
<circle cx="45.64" cy="11.9045" r="1.97611" stroke="#383838" stroke-width="1.5"/>
</svg>
