<svg width="280" height="350" viewBox="0 0 280 350" fill="none" xmlns="http://www.w3.org/2000/svg">
<path d="M123.89 251.787C154.326 300.551 201.95 285.115 221.957 271.301C262.219 237.283 264.82 197.429 233.866 167.193C202.913 136.957 174.192 141.786 151.461 152.045C133.192 160.29 85.8458 190.832 123.89 251.787Z" fill="#FFDFDC"/>
<path d="M36.8372 292.015C67.273 340.779 114.896 325.343 134.904 311.529C175.165 277.512 177.767 237.657 146.813 207.421C115.859 177.185 87.1392 182.014 64.4077 192.273C46.1391 200.518 -1.20746 231.061 36.8372 292.015Z" fill="#B6DDDA"/>
<path d="M116.762 142.87C150.18 196.57 200.031 181.093 220.779 166.641C262.367 130.815 264.054 87.6562 230.582 54.0382C197.11 20.4203 166.927 24.8952 143.209 35.4182C124.148 43.8753 74.9902 75.7447 116.762 142.87Z" fill="#FFB0A9"/>
<path d="M85.9952 106.962C28.1947 108.136 17.185 149.503 18.9053 170.04C27.7523 214.048 60.9287 233.118 102.952 223.583C144.975 214.048 155.494 191.031 158.246 170.04C160.458 153.17 158.246 105.495 85.9952 106.962Z" fill="#FFE6A3"/>
<path d="M128.215 160.866V151.654C128.215 148.262 130.442 145.512 133.19 145.512H153.091C155.839 145.512 158.066 148.262 158.066 151.654V160.866M105.827 163.937H180.455M113.289 163.937V225.354C113.289 228.746 115.517 231.496 118.265 231.496H168.017C170.764 231.496 172.992 228.746 172.992 225.354V163.937M143.141 185.433V216.142M128.215 197.717V216.142M158.066 197.717V216.142" stroke="#383838" stroke-width="3"/>
</svg>
