<svg width="64" height="64" viewBox="0 0 64 64" fill="none" xmlns="http://www.w3.org/2000/svg">
<circle cx="32" cy="32" r="32" fill="#FFB0A9"/>
<path d="M24.4306 31.7778L19.6528 27M24.4306 31.7778L19.6528 36.5556M24.4306 31.7778H14" stroke="#383838" stroke-width="1.5"/>
<path d="M34.8807 24.8393V22.5357C34.8807 21.6876 35.5224 21 36.314 21H42.0473C42.8389 21 43.4807 21.6876 43.4807 22.5357V24.8393M28.4307 25.6071H49.9307M30.5807 25.6071V40.9643C30.5807 41.8124 31.2224 42.5 32.014 42.5H46.3473C47.1389 42.5 47.7807 41.8124 47.7807 40.9643V25.6071M39.1807 30.9821V38.6607M34.8807 34.0536V38.6607M43.4807 34.0536V38.6607" stroke="#383838" stroke-width="1.5"/>
</svg>
